<?xml version="1.0" encoding="UTF-8"?>
<svg version="1.1" xmlns="http://www.w3.org/2000/svg" width="512" height="512">
<path d="M0 0 C1.10794922 -0.01260864 2.21589844 -0.02521729 3.35742188 -0.03820801 C4.54916016 -0.03011108 5.74089844 -0.02201416 6.96875 -0.01367188 C8.19658203 -0.01749878 9.42441406 -0.02132568 10.68945312 -0.02526855 C13.28516459 -0.02799029 15.88090336 -0.02061099 18.4765625 -0.00390625 C22.45374599 0.01749738 26.42912282 -0.0037015 30.40625 -0.02929688 C32.92708733 -0.02665365 35.44792353 -0.02152878 37.96875 -0.01367188 C39.16048828 -0.0217688 40.35222656 -0.02986572 41.58007812 -0.03820801 C43.24200195 -0.01929504 43.24200195 -0.01929504 44.9375 0 C45.91138672 0.00318237 46.88527344 0.00636475 47.88867188 0.00964355 C51.23027382 0.66749772 52.4210399 1.83718659 54.46875 4.51757812 C54.8178505 7.40722933 54.9369062 9.90350523 54.859375 12.78320312 C54.85371521 13.57660095 54.84805542 14.36999878 54.84222412 15.18743896 C54.81988147 17.71477286 54.76969176 20.24067478 54.71875 22.76757812 C54.69868214 24.48370344 54.68043187 26.19985104 54.6640625 27.91601562 C54.62002395 32.11708593 54.55101326 36.31708947 54.46875 40.51757812 C55.28859375 40.47117188 56.1084375 40.42476562 56.953125 40.37695312 C58.03078125 40.34085938 59.1084375 40.30476563 60.21875 40.26757812 C61.28609375 40.22117188 62.3534375 40.17476562 63.453125 40.12695312 C66.46875 40.51757812 66.46875 40.51757812 68.83496094 42.01660156 C71.13021087 45.5301312 70.96850223 48.72995165 70.859375 52.78320312 C70.85371521 53.57660095 70.84805542 54.36999878 70.84222412 55.18743896 C70.81988147 57.71477286 70.76969176 60.24067478 70.71875 62.76757812 C70.69868214 64.48370344 70.68043187 66.19985104 70.6640625 67.91601562 C70.62342892 72.11752826 70.54514313 76.31595579 70.46875 80.51757812 C79.37875 80.51757812 88.28875 80.51757812 97.46875 80.51757812 C98.12875 78.53757812 98.78875 76.55757813 99.46875 74.51757812 C101.32869661 70.37585596 103.37790384 66.3290941 105.40625 62.26757812 C106.21352539 60.61628906 106.21352539 60.61628906 107.03710938 58.93164062 C107.55982422 57.88234375 108.08253906 56.83304688 108.62109375 55.75195312 C109.09538818 54.79514648 109.56968262 53.83833984 110.05834961 52.85253906 C111.46875 50.51757812 111.46875 50.51757812 114.46875 48.51757812 C116.70080471 48.26030922 116.70080471 48.26030922 119.35826111 48.25015259 C120.36630295 48.24162262 121.37434479 48.23309265 122.41293335 48.2243042 C123.51795197 48.22521057 124.62297058 48.22611694 125.76147461 48.22705078 C126.92591599 48.22033356 128.09035736 48.21361633 129.29008484 48.20669556 C133.15046419 48.18765233 137.01067031 48.18378827 140.87109375 48.18164062 C142.87149251 48.17684018 144.87189131 48.17203653 146.87228876 48.16671979 C153.16316305 48.15043413 159.4539801 48.14555104 165.74487305 48.14697266 C172.23482024 48.14817452 178.72443511 48.12706459 185.21429819 48.09548533 C190.78636552 48.06933797 196.35832419 48.05860469 201.93045241 48.05988348 C205.2584429 48.06039353 208.58607112 48.05285186 211.91401482 48.03352737 C215.62516975 48.01399441 219.3354629 48.0196561 223.04663086 48.03173828 C224.14962524 48.02049927 225.25261963 48.00926025 226.38903809 47.99768066 C227.90533058 48.01026413 227.90533058 48.01026413 229.45225525 48.02310181 C230.32959289 48.02201227 231.20693052 48.02092274 232.11085415 48.01980019 C235.26406081 48.68547705 236.43160612 50.07603325 238.46875 52.51757812 C239.61933907 54.47944503 240.69234358 56.4879663 241.703125 58.52539062 C242.27675781 59.67652344 242.85039062 60.82765625 243.44140625 62.01367188 C243.73289551 62.60905762 244.02438477 63.20444336 244.32470703 63.81787109 C245.22154869 65.64829013 246.13121017 67.47189464 247.04296875 69.29492188 C251.46875 78.23680644 251.46875 78.23680644 251.46875 80.51757812 C260.37875 80.51757812 269.28875 80.51757812 278.46875 80.51757812 C278.42234375 77.96523437 278.3759375 75.41289063 278.328125 72.78320312 C278.29691843 70.30763741 278.27263702 67.83209372 278.24902344 65.35644531 C278.22892372 63.63759534 278.20163911 61.9188136 278.16699219 60.20019531 C278.11839966 57.72769323 278.09576565 55.25609602 278.078125 52.78320312 C278.05747986 52.01639221 278.03683472 51.2495813 278.01556396 50.45953369 C278.01413569 47.05366812 278.22087448 44.89702176 280.10253906 42.01660156 C283.16651179 40.07553754 285.11990859 40.11110676 288.71875 40.26757812 C289.79640625 40.30367187 290.8740625 40.33976562 291.984375 40.37695312 C292.80421875 40.42335937 293.6240625 40.46976563 294.46875 40.51757812 C294.44780273 39.44797852 294.42685547 38.37837891 294.40527344 37.27636719 C294.33280374 33.3031964 294.28692537 29.33008387 294.24902344 25.35644531 C294.22892372 23.63759534 294.20163911 21.9188136 294.16699219 20.20019531 C294.11839966 17.72769323 294.09576565 15.25609602 294.078125 12.78320312 C294.05747986 12.01639221 294.03683472 11.2495813 294.01556396 10.45953369 C294.01415958 7.11063595 294.08485979 5.02007898 296.15142822 2.31500244 C298.99692858 0.10789785 300.43003821 0.01166558 304 0 C305.10794922 -0.01260864 306.21589844 -0.02521729 307.35742188 -0.03820801 C308.54916016 -0.03011108 309.74089844 -0.02201416 310.96875 -0.01367188 C312.19658203 -0.01749878 313.42441406 -0.02132568 314.68945312 -0.02526855 C317.28516459 -0.02799029 319.88090336 -0.02061099 322.4765625 -0.00390625 C326.45374599 0.01749738 330.42912282 -0.0037015 334.40625 -0.02929688 C336.92708733 -0.02665365 339.44792353 -0.02152878 341.96875 -0.01367188 C343.16048828 -0.0217688 344.35222656 -0.02986572 345.58007812 -0.03820801 C347.24200195 -0.01929504 347.24200195 -0.01929504 348.9375 0 C349.91138672 0.00318237 350.88527344 0.00636475 351.88867188 0.00964355 C355.23027382 0.66749772 356.4210399 1.83718659 358.46875 4.51757812 C358.8178505 7.40722933 358.9369062 9.90350523 358.859375 12.78320312 C358.85371521 13.57660095 358.84805542 14.36999878 358.84222412 15.18743896 C358.81988147 17.71477286 358.76969176 20.24067478 358.71875 22.76757812 C358.69868214 24.48370344 358.68043187 26.19985104 358.6640625 27.91601562 C358.62002395 32.11708593 358.55101326 36.31708947 358.46875 40.51757812 C359.28859375 40.47117188 360.1084375 40.42476562 360.953125 40.37695312 C362.03078125 40.34085938 363.1084375 40.30476563 364.21875 40.26757812 C365.28609375 40.22117188 366.3534375 40.17476562 367.453125 40.12695312 C370.46875 40.51757812 370.46875 40.51757812 372.83496094 42.01660156 C375.13021087 45.5301312 374.96850223 48.72995165 374.859375 52.78320312 C374.85371521 53.57660095 374.84805542 54.36999878 374.84222412 55.18743896 C374.81988147 57.71477286 374.76969176 60.24067478 374.71875 62.76757812 C374.69868214 64.48370344 374.68043187 66.19985104 374.6640625 67.91601562 C374.62002395 72.11708593 374.55101326 76.31708947 374.46875 80.51757812 C375.11132751 80.50869568 375.75390503 80.49981323 376.41595459 80.49066162 C383.09915275 80.40222164 389.7821849 80.34185759 396.46582031 80.29785156 C398.96068065 80.27772649 401.45549378 80.25042361 403.95019531 80.21582031 C407.53462368 80.16734356 411.11842885 80.14461792 414.703125 80.12695312 C415.81991638 80.10630798 416.93670776 80.08566284 418.08734131 80.06439209 C419.12811829 80.06408997 420.16889526 80.06378784 421.24121094 80.06347656 C422.15610291 80.05459412 423.07099487 80.04571167 424.01361084 80.03656006 C427.37873256 80.69586458 428.49355347 81.72770579 430.46875 84.51757812 C430.97668457 87.70507812 430.97668457 87.70507812 430.98632812 91.51757812 C430.99684204 92.56220215 430.99684204 92.56220215 431.00756836 93.62792969 C431.02514196 95.92488744 431.01352919 98.22060833 431 100.51757812 C431.00269513 102.11653886 431.00657773 103.715498 431.01159668 105.31445312 C431.01749082 108.66357038 431.00893192 112.01226056 430.99023438 115.36132812 C430.96744435 119.65236403 430.98056796 123.94239924 431.00452423 128.23339844 C431.0189848 131.53458179 431.01437515 134.83552823 431.00401306 138.13671875 C431.00134646 139.71875121 431.00461322 141.30080524 431.01393127 142.8828125 C431.02410179 145.09497975 431.0085919 147.30553112 430.98632812 149.51757812 C430.98314575 150.77570313 430.97996338 152.03382813 430.97668457 153.33007812 C430.35874276 157.20791919 429.54939389 158.1505722 426.46875 160.51757812 C423.44433594 160.97167969 423.44433594 160.97167969 419.953125 160.90820312 C418.07753906 160.88886719 418.07753906 160.88886719 416.1640625 160.86914062 C414.21113281 160.81886719 414.21113281 160.81886719 412.21875 160.76757812 C410.90132813 160.74953125 409.58390625 160.73148438 408.2265625 160.71289062 C404.97322692 160.66574083 401.72135375 160.59993856 398.46875 160.51757812 C398.47026888 161.11699463 398.47178776 161.71641113 398.47335267 162.33399177 C398.5628158 197.84033175 398.63147132 233.34665238 398.67301132 268.85308157 C398.6780143 273.11396863 398.68319157 277.37485547 398.68847656 281.63574219 C398.6895258 282.48402754 398.69057505 283.33231289 398.69165608 284.20630386 C398.70907334 297.95147231 398.74061828 311.696574 398.77736118 325.44170281 C398.8147339 339.53975267 398.83697807 353.63776751 398.84510398 367.73586488 C398.85059939 376.43899797 398.86797174 385.14194242 398.90041587 393.84501746 C398.92151851 399.80863049 398.92795973 405.77214564 398.92275551 411.73579332 C398.92018705 415.17937147 398.9241938 418.62261941 398.9455719 422.06613922 C398.96536447 425.79596707 398.96072755 429.52497645 398.94976807 433.25482178 C398.96141943 434.34819973 398.9730708 435.44157768 398.98507524 436.56808829 C398.97711104 437.56533683 398.96914685 438.56258537 398.96094131 439.59005356 C398.9624602 440.45125927 398.96397908 441.31246498 398.96554399 442.19976783 C398.26424596 445.47169913 397.19088438 446.58592 394.46875 448.51757812 C391.87572408 448.90995499 389.70681757 449.05588822 387.11608887 449.02094269 C386.36978745 449.02675645 385.62348604 449.03257021 384.85456944 449.03856015 C382.33957112 449.0532242 379.825539 449.03924569 377.31054688 449.0255127 C375.49502817 449.03011909 373.67951318 449.03647024 371.86400604 449.04442167 C366.86397254 449.06117404 361.86424305 449.05284186 356.86420822 449.0404768 C351.47626397 449.03145273 346.08837319 449.04538287 340.70043945 449.05639648 C330.14109411 449.07421461 319.58186228 449.07032707 309.02251244 449.05874592 C300.44330282 449.04972481 291.8641251 449.04848186 283.28491211 449.05284119 C282.06545002 449.05345412 280.84598792 449.05406705 279.58957243 449.05469856 C277.11252148 449.05597741 274.63547054 449.05727427 272.15841961 449.05858892 C248.91258369 449.07000437 225.6668108 449.05686588 202.42098522 449.03538746 C182.46031274 449.01751562 162.4997333 449.02061945 142.5390625 449.0390625 C119.37833371 449.06045218 96.2176602 449.06890564 73.05692291 449.05661345 C70.58881125 449.0553392 68.12069957 449.05408172 65.65258789 449.05284119 C63.83088931 449.05191553 63.83088931 449.05191553 61.97238874 449.05097118 C53.40011745 449.04751257 44.82788112 449.05335762 36.25561523 449.0627594 C25.81369696 449.07395963 15.37189901 449.070981 4.92999458 449.04963642 C-0.40109762 449.03909939 -5.73198896 449.03504927 -11.06307983 449.04823303 C-15.93851822 449.06010792 -20.81356859 449.05367577 -25.68897152 449.03232282 C-27.45741356 449.02783587 -29.22588805 449.03016959 -30.99430943 449.03982598 C-33.38954204 449.05190685 -35.78342782 449.03960123 -38.17858887 449.02094269 C-38.87284942 449.03030735 -39.56710997 449.03967202 -40.28240871 449.04932046 C-43.5138144 448.99865322 -45.2992885 448.68218069 -47.96002936 446.79408813 C-49.79898771 444.12965834 -50.02910656 442.80224876 -50.02344131 439.59005356 C-50.03140551 438.59280502 -50.0393697 437.59555648 -50.04757524 436.56808829 C-50.03592387 435.47471034 -50.0242725 434.38133239 -50.01226807 433.25482178 C-50.01568577 432.09167521 -50.01910347 430.92852864 -50.02262473 429.7301352 C-50.02807934 426.50088696 -50.01555987 423.27227904 -49.99551249 420.04310656 C-49.97825381 416.56120853 -49.98408305 413.07934087 -49.98712158 409.59741211 C-49.98921996 403.56454121 -49.97665996 397.53184322 -49.95417023 391.49901581 C-49.92167503 382.77656837 -49.91124576 374.05420463 -49.90621826 365.33170322 C-49.8974617 351.18039796 -49.87083636 337.02918489 -49.83300781 322.87792969 C-49.79629705 309.13053855 -49.76798072 295.38317244 -49.75097656 281.63574219 C-49.74992567 280.78848634 -49.74887477 279.94123049 -49.74779204 279.06830022 C-49.74257192 274.81790668 -49.73751708 270.56751296 -49.73254442 266.31711912 C-49.69107115 231.05053974 -49.62061292 195.78406743 -49.53125 160.51757812 C-50.35850586 160.53852539 -51.18576172 160.55947266 -52.03808594 160.58105469 C-55.7856837 160.66419432 -59.53308749 160.71623343 -63.28125 160.76757812 C-65.23417969 160.81785156 -65.23417969 160.81785156 -67.2265625 160.86914062 C-68.47695312 160.88203125 -69.72734375 160.89492187 -71.015625 160.90820312 C-72.16772461 160.92915039 -73.31982422 160.95009766 -74.50683594 160.97167969 C-78.1824657 160.41980115 -79.33121313 159.46284961 -81.53125 156.51757812 C-82.03918457 153.33007812 -82.03918457 153.33007812 -82.04882812 149.51757812 C-82.0558374 148.82116211 -82.06284668 148.12474609 -82.07006836 147.40722656 C-82.08764196 145.11026881 -82.07602919 142.81454792 -82.0625 140.51757812 C-82.06519513 138.91861739 -82.06907773 137.31965825 -82.07409668 135.72070312 C-82.07999082 132.37158587 -82.07143192 129.02289569 -82.05273438 125.67382812 C-82.02994435 121.38279222 -82.04306796 117.09275701 -82.06702423 112.80175781 C-82.0814848 109.50057446 -82.07687515 106.19962802 -82.06651306 102.8984375 C-82.06384646 101.31640504 -82.06711322 99.73435101 -82.07643127 98.15234375 C-82.08660179 95.9401765 -82.0710919 93.72962513 -82.04882812 91.51757812 C-82.04564575 90.25945312 -82.04246338 89.00132813 -82.03918457 87.70507812 C-81.53125 84.51757812 -81.53125 84.51757812 -79.82562256 82.10845947 C-77.06624758 80.19515286 -75.63869629 80.03109806 -72.30371094 80.06347656 C-70.74254547 80.06392975 -70.74254547 80.06392975 -69.14984131 80.06439209 C-67.47465424 80.0953598 -67.47465424 80.0953598 -65.765625 80.12695312 C-64.04282318 80.13544281 -64.04282318 80.13544281 -62.28521729 80.144104 C-58.61680426 80.16649481 -54.94936783 80.21669871 -51.28125 80.26757812 C-48.79428494 80.28763951 -46.30730457 80.30589091 -43.8203125 80.32226562 C-37.72362511 80.36636857 -31.62750733 80.43330864 -25.53125 80.51757812 C-25.55219727 79.44797852 -25.57314453 78.37837891 -25.59472656 77.27636719 C-25.66719626 73.3031964 -25.71307463 69.33008387 -25.75097656 65.35644531 C-25.77107628 63.63759534 -25.79836089 61.9188136 -25.83300781 60.20019531 C-25.88160034 57.72769323 -25.90423435 55.25609602 -25.921875 52.78320312 C-25.94252014 52.01639221 -25.96316528 51.2495813 -25.98443604 50.45953369 C-25.98586431 47.05366812 -25.77912552 44.89702176 -23.89746094 42.01660156 C-20.83348821 40.07553754 -18.88009141 40.11110676 -15.28125 40.26757812 C-14.20359375 40.30367187 -13.1259375 40.33976562 -12.015625 40.37695312 C-11.19578125 40.42335937 -10.3759375 40.46976563 -9.53125 40.51757812 C-9.5626709 38.91317871 -9.5626709 38.91317871 -9.59472656 37.27636719 C-9.66719626 33.3031964 -9.71307463 29.33008387 -9.75097656 25.35644531 C-9.77107628 23.63759534 -9.79836089 21.9188136 -9.83300781 20.20019531 C-9.88160034 17.72769323 -9.90423435 15.25609602 -9.921875 12.78320312 C-9.94252014 12.01639221 -9.96316528 11.2495813 -9.98443604 10.45953369 C-9.98584042 7.11063595 -9.91514021 5.02007898 -7.84857178 2.31500244 C-5.00307142 0.10789785 -3.56996179 0.01166558 0 0 Z M6.46875 16.51757812 C6.46875 24.43757813 6.46875 32.35757813 6.46875 40.51757812 C17.02875 40.51757812 27.58875 40.51757812 38.46875 40.51757812 C38.46875 32.59757812 38.46875 24.67757812 38.46875 16.51757812 C27.90875 16.51757812 17.34875 16.51757812 6.46875 16.51757812 Z M310.46875 16.51757812 C310.46875 24.43757813 310.46875 32.35757813 310.46875 40.51757812 C321.02875 40.51757812 331.58875 40.51757812 342.46875 40.51757812 C342.46875 32.59757812 342.46875 24.67757812 342.46875 16.51757812 C331.90875 16.51757812 321.34875 16.51757812 310.46875 16.51757812 Z M-9.53125 56.51757812 C-9.53125 64.43757813 -9.53125 72.35757813 -9.53125 80.51757812 C11.58875 80.51757812 32.70875 80.51757812 54.46875 80.51757812 C54.46875 72.59757812 54.46875 64.67757812 54.46875 56.51757812 C33.34875 56.51757812 12.22875 56.51757812 -9.53125 56.51757812 Z M294.46875 56.51757812 C294.46875 64.43757813 294.46875 72.35757813 294.46875 80.51757812 C315.58875 80.51757812 336.70875 80.51757812 358.46875 80.51757812 C358.46875 72.59757812 358.46875 64.67757812 358.46875 56.51757812 C337.34875 56.51757812 316.22875 56.51757812 294.46875 56.51757812 Z M123.46875 64.51757812 C118.66704172 72.21028648 118.66704172 72.21028648 116.46875 80.51757812 C154.74875 80.51757812 193.02875 80.51757812 232.46875 80.51757812 C230.35089887 73.69262021 230.35089887 73.69262021 225.46875 64.51757812 C191.80875 64.51757812 158.14875 64.51757812 123.46875 64.51757812 Z M-65.53125 96.51757812 C-65.53125 112.35757813 -65.53125 128.19757813 -65.53125 144.51757812 C92.86875 144.51757812 251.26875 144.51757812 414.46875 144.51757812 C414.46875 128.67757812 414.46875 112.83757812 414.46875 96.51757812 C256.06875 96.51757812 97.66875 96.51757812 -65.53125 96.51757812 Z M-33.53125 160.51757812 C-33.53125 250.27757812 -33.53125 340.03757812 -33.53125 432.51757812 C103.74875 432.51757812 241.02875 432.51757812 382.46875 432.51757812 C382.46875 342.75757813 382.46875 252.99757813 382.46875 160.51757812 C245.18875 160.51757812 107.90875 160.51757812 -33.53125 160.51757812 Z " fill="#ffffff" transform="translate(81.53125,31.482421875)"/>
<path d="M0 0 C2.91118284 2.22818855 3.9049244 3.39466967 4.48101807 7.06256104 C4.4676944 8.86125641 4.4676944 8.86125641 4.45410156 10.69628906 C4.45468567 11.36011597 4.45526978 12.02394287 4.45587158 12.70788574 C4.45309265 14.89433738 4.42201328 17.07941262 4.390625 19.265625 C4.38316184 20.78447729 4.37746926 22.30333922 4.37347412 23.82220459 C4.35822341 27.81403325 4.31894723 31.80527697 4.2746582 35.796875 C4.23369289 39.87231534 4.21546046 43.94785048 4.1953125 48.0234375 C4.15245175 56.01589302 4.08420804 64.00787368 4 72 C4.74280212 71.99111755 5.48560425 71.98223511 6.25091553 71.9730835 C13.25449905 71.89290256 20.25792335 71.83201814 27.26183701 71.79275131 C30.86258286 71.77188487 34.46294916 71.74358579 38.06347656 71.69824219 C41.53887913 71.65474875 45.01391688 71.63085579 48.48957062 71.62049103 C50.45945784 71.60951385 52.42919847 71.578293 54.39886475 71.54681396 C56.20027924 71.54636078 56.20027924 71.54636078 58.03808594 71.54589844 C59.6236026 71.53257477 59.6236026 71.53257477 61.2411499 71.51898193 C64.72713922 72.12678003 65.88488293 73.20661102 68 76 C68.73048775 79.98447866 69.01982781 82.37173255 66.84765625 85.83984375 C64.98674511 87.99194881 63.01027722 89.98632129 61 92 C59.60553398 93.5088323 58.21148836 95.01807888 56.82519531 96.53442383 C55.28212165 98.22069752 53.73029221 99.89848666 52.17578125 101.57421875 C49.11201818 104.87805631 46.05523814 108.18828015 43 111.5 C42.00003383 112.58336456 41.00003377 113.66669784 40 114.75 C39.505 115.28625 39.01 115.8225 38.5 116.375 C-2 160.25 -2 160.25 -3.5012207 161.8762207 C-4.49728701 162.95536014 -5.49321887 164.0346237 -6.48901367 165.11401367 C-9.04808886 167.88756693 -11.6097419 170.65866872 -14.17578125 173.42578125 C-15.22151401 174.55453944 -16.2670894 175.68344343 -17.3125 176.8125 C-17.81313965 177.35293945 -18.3137793 177.89337891 -18.82958984 178.45019531 C-22.20052071 182.1011935 -25.48864816 185.81242917 -28.6953125 189.609375 C-31.36844133 192.45857818 -34.17809584 192.21894445 -37.9296875 192.42578125 C-41.00134575 191.79406286 -42.06581727 190.43623846 -44 188 C-44.48101807 184.93743896 -44.48101807 184.93743896 -44.45410156 181.30371094 C-44.45468567 180.63988403 -44.45526978 179.97605713 -44.45587158 179.29211426 C-44.45309265 177.10566262 -44.42201328 174.92058738 -44.390625 172.734375 C-44.38316184 171.21552271 -44.37746926 169.69666078 -44.37347412 168.17779541 C-44.35822341 164.18596675 -44.31894723 160.19472303 -44.2746582 156.203125 C-44.23369289 152.12768466 -44.21546046 148.05214952 -44.1953125 143.9765625 C-44.15245175 135.98410698 -44.08420804 127.99212632 -44 120 C-45.11420319 120.01332367 -45.11420319 120.01332367 -46.25091553 120.0269165 C-53.25449905 120.10709744 -60.25792335 120.16798186 -67.26183701 120.20724869 C-70.86258286 120.22811513 -74.46294916 120.25641421 -78.06347656 120.30175781 C-81.53887913 120.34525125 -85.01391688 120.36914421 -88.48957062 120.37950897 C-90.45945784 120.39048615 -92.42919847 120.421707 -94.39886475 120.45318604 C-96.20027924 120.45363922 -96.20027924 120.45363922 -98.03808594 120.45410156 C-99.6236026 120.46742523 -99.6236026 120.46742523 -101.2411499 120.48101807 C-104.72713922 119.87321997 -105.88488293 118.79338898 -108 116 C-108.73048775 112.01552134 -109.01982781 109.62826745 -106.84765625 106.16015625 C-104.98674511 104.00805119 -103.01027722 102.01367871 -101 100 C-99.60553398 98.4911677 -98.21148836 96.98192112 -96.82519531 95.46557617 C-95.28212165 93.77930248 -93.73029221 92.10151334 -92.17578125 90.42578125 C-89.11201818 87.12194369 -86.05523814 83.81171985 -83 80.5 C-82.00003383 79.41663544 -81.00003377 78.33330216 -80 77.25 C-79.505 76.71375 -79.01 76.1775 -78.5 75.625 C-38 31.75 -38 31.75 -36.4987793 30.1237793 C-35.50271299 29.04463986 -34.50678113 27.9653763 -33.51098633 26.88598633 C-30.95191114 24.11243307 -28.3902581 21.34133128 -25.82421875 18.57421875 C-24.77848599 17.44546056 -23.7329106 16.31655657 -22.6875 15.1875 C-22.18686035 14.64706055 -21.6862207 14.10662109 -21.17041016 13.54980469 C-17.79947929 9.8988065 -14.51135184 6.18757083 -11.3046875 2.390625 C-8.34243371 -0.76674731 -4.04791245 -0.8324952 0 0 Z M-14.40771484 31.37011719 C-15.30031006 32.3238623 -15.30031006 32.3238623 -16.2109375 33.296875 C-17.20432129 34.35503418 -17.20432129 34.35503418 -18.21777344 35.43457031 C-19.28560059 36.58070801 -19.28560059 36.58070801 -20.375 37.75 C-21.10235352 38.52698242 -21.82970703 39.30396484 -22.57910156 40.10449219 C-27.539589 45.41131502 -32.46628669 50.74781486 -37.36328125 56.11328125 C-40.21100606 59.23101256 -43.07214711 62.33598152 -45.9375 65.4375 C-46.43668945 65.97793945 -46.93587891 66.51837891 -47.45019531 67.07519531 C-48.46136553 68.16981478 -49.47259617 69.26437843 -50.48388672 70.35888672 C-51.99094817 71.99020187 -53.4975303 73.62195809 -55.00390625 75.25390625 C-55.49898682 75.79023682 -55.99406738 76.32656738 -56.50415039 76.87915039 C-57.49701599 77.95498436 -58.48969348 79.03099196 -59.48217773 80.10717773 C-62.07678914 82.91995978 -64.67570245 85.72859247 -67.28125 88.53125 C-67.82007813 89.11197266 -68.35890625 89.69269531 -68.9140625 90.29101562 C-69.93871697 91.39516915 -70.96466915 92.49812046 -71.9921875 93.59960938 C-77.13071278 98.28017258 -77.13071278 98.28017258 -80 104 C-79.10797127 104.00879936 -79.10797127 104.00879936 -78.19792175 104.01777649 C-72.01729245 104.08163122 -65.8371877 104.16602993 -59.65698242 104.26245117 C-57.34943551 104.29573856 -55.04180643 104.32375849 -52.73413086 104.34643555 C-49.42005338 104.37991108 -46.10673155 104.43222398 -42.79296875 104.48828125 C-41.7585112 104.49467117 -40.72405365 104.5010611 -39.6582489 104.50764465 C-38.6974794 104.52743881 -37.7367099 104.54723297 -36.74682617 104.56762695 C-35.90077316 104.57873001 -35.05472015 104.58983307 -34.18302917 104.60127258 C-32 105 -32 105 -30.23034668 106.19592285 C-28.55906853 108.64654492 -28.6020882 110.34083219 -28.56762695 113.29760742 C-28.54783279 114.37850143 -28.52803864 115.45939545 -28.50764465 116.57304382 C-28.50125473 117.73874405 -28.49486481 118.90444427 -28.48828125 120.10546875 C-28.47033005 121.29981033 -28.45237885 122.49415192 -28.43388367 123.72468567 C-28.37962967 127.54558768 -28.34583571 131.36636371 -28.3125 135.1875 C-28.27934035 137.77540822 -28.24485198 140.36329977 -28.20898438 142.95117188 C-28.12389443 149.30066828 -28.05560847 155.65018069 -28 162 C-24.26959966 158.88667295 -20.63816543 155.85202276 -17.515625 152.109375 C-14.04641463 148.03682369 -10.42479407 144.13695906 -6.75 140.25 C-1.34763096 134.51185663 4.01259914 128.74064591 9.328125 122.921875 C12.18877758 119.79355902 15.06124973 116.67646458 17.9375 113.5625 C18.43080811 113.02794189 18.92411621 112.49338379 19.43237305 111.94262695 C22.04520062 109.1122408 24.66241856 106.28605051 27.28515625 103.46484375 C27.82342041 102.88468506 28.36168457 102.30452637 28.91625977 101.70678711 C29.94007693 100.60342565 30.96521558 99.50128829 31.99194336 98.40063477 C37.13062292 93.71996479 37.13062292 93.71996479 40 88 C39.40531418 87.99413376 38.81062836 87.98826752 38.19792175 87.98222351 C32.01729245 87.91836878 25.8371877 87.83397007 19.65698242 87.73754883 C17.34943551 87.70426144 15.04180643 87.67624151 12.73413086 87.65356445 C9.42005338 87.62008892 6.10673155 87.56777602 2.79296875 87.51171875 C1.7585112 87.50532883 0.72405365 87.4989389 -0.3417511 87.49235535 C-1.78290535 87.46266411 -1.78290535 87.46266411 -3.25317383 87.43237305 C-4.52225334 87.41571846 -4.52225334 87.41571846 -5.81697083 87.39872742 C-8 87 -8 87 -9.76965332 85.80407715 C-11.44093147 83.35345508 -11.3979118 81.65916781 -11.43237305 78.70239258 C-11.45216721 77.62149857 -11.47196136 76.54060455 -11.49235535 75.42695618 C-11.49874527 74.26125595 -11.50513519 73.09555573 -11.51171875 71.89453125 C-11.52966995 70.70018967 -11.54762115 69.50584808 -11.56611633 68.27531433 C-11.62037033 64.45441232 -11.65416429 60.63363629 -11.6875 56.8125 C-11.72065965 54.22459178 -11.75514802 51.63670023 -11.79101562 49.04882812 C-11.87610557 42.69933172 -11.94439153 36.34981931 -12 30 C-13.20796534 29.88375462 -13.20796534 29.88375462 -14.40771484 31.37011719 Z " fill="#ffffff" transform="translate(276,232)"/>
<path d="M0 0 C0.66 -0.0103125 1.32 -0.020625 2 -0.03125 C4.98174986 0.76077731 6.16411059 2.04673186 8 4.5 C8.390625 7.515625 8.390625 7.515625 8.25 10.75 C8.21390625 11.82765625 8.1778125 12.9053125 8.140625 14.015625 C8.09421875 14.83546875 8.0478125 15.6553125 8 16.5 C8.81984375 16.45359375 9.6396875 16.4071875 10.484375 16.359375 C11.56203125 16.32328125 12.6396875 16.2871875 13.75 16.25 C15.35101563 16.18039063 15.35101563 16.18039063 16.984375 16.109375 C20 16.5 20 16.5 22.359375 18.265625 C24.09023982 20.62289805 24.54492653 21.62470206 24.5 24.5 C24.5103125 25.16 24.520625 25.82 24.53125 26.5 C23.73922269 29.48174986 22.45326814 30.66411059 20 32.5 C16.984375 32.890625 16.984375 32.890625 13.75 32.75 C12.67234375 32.71390625 11.5946875 32.6778125 10.484375 32.640625 C9.66453125 32.59421875 8.8446875 32.5478125 8 32.5 C8.04640625 33.31984375 8.0928125 34.1396875 8.140625 34.984375 C8.19476563 36.60085937 8.19476563 36.60085937 8.25 38.25 C8.29640625 39.31734375 8.3428125 40.3846875 8.390625 41.484375 C8 44.5 8 44.5 6.234375 46.859375 C3.87710195 48.59023982 2.87529794 49.04492653 0 49 C-0.99 49.01546875 -0.99 49.01546875 -2 49.03125 C-4.98174986 48.23922269 -6.16411059 46.95326814 -8 44.5 C-8.390625 41.484375 -8.390625 41.484375 -8.25 38.25 C-8.21390625 37.17234375 -8.1778125 36.0946875 -8.140625 34.984375 C-8.09421875 34.16453125 -8.0478125 33.3446875 -8 32.5 C-8.81984375 32.54640625 -9.6396875 32.5928125 -10.484375 32.640625 C-12.10085938 32.69476563 -12.10085938 32.69476563 -13.75 32.75 C-14.81734375 32.79640625 -15.8846875 32.8428125 -16.984375 32.890625 C-20 32.5 -20 32.5 -22.359375 30.734375 C-24.09023982 28.37710195 -24.54492653 27.37529794 -24.5 24.5 C-24.51546875 23.51 -24.51546875 23.51 -24.53125 22.5 C-23.73922269 19.51825014 -22.45326814 18.33588941 -20 16.5 C-16.984375 16.109375 -16.984375 16.109375 -13.75 16.25 C-12.67234375 16.28609375 -11.5946875 16.3221875 -10.484375 16.359375 C-9.25460937 16.42898437 -9.25460937 16.42898437 -8 16.5 C-8.04640625 15.68015625 -8.0928125 14.8603125 -8.140625 14.015625 C-8.17671875 12.93796875 -8.2128125 11.8603125 -8.25 10.75 C-8.29640625 9.68265625 -8.3428125 8.6153125 -8.390625 7.515625 C-8 4.5 -8 4.5 -6.234375 2.140625 C-3.87710195 0.40976018 -2.87529794 -0.04492653 0 0 Z " fill="#ffffff" transform="translate(408,207.5)"/>
<path d="M0 0 C0.87269531 -0.0038269 1.74539062 -0.00765381 2.64453125 -0.01159668 C4.48699092 -0.0143149 6.32948924 -0.00695994 8.171875 0.00976562 C10.99045934 0.03117752 13.80649485 0.00996199 16.625 -0.015625 C18.41667229 -0.01298171 20.20834299 -0.00785669 22 0 C22.84175781 -0.00809692 23.68351562 -0.01619385 24.55078125 -0.02453613 C30.38715618 0.06889601 30.38715618 0.06889601 33.52929688 2.43945312 C35.12144695 4.7039853 35.542797 5.7922417 35.5 8.53125 C35.5103125 9.19125 35.520625 9.85125 35.53125 10.53125 C34.72011424 13.58493756 33.53019712 14.62236769 31 16.53125 C28.00263779 17.13239553 25.04890723 17.09182764 22 17.0625 C21.12730469 17.0663269 20.25460938 17.07015381 19.35546875 17.07409668 C17.51300908 17.0768149 15.67051076 17.06945994 13.828125 17.05273438 C11.00954066 17.03132248 8.19350515 17.05253801 5.375 17.078125 C3.58332771 17.07548171 1.79165701 17.07035669 0 17.0625 C-0.84175781 17.07059692 -1.68351562 17.07869385 -2.55078125 17.08703613 C-8.38715618 16.99360399 -8.38715618 16.99360399 -11.52929688 14.62304688 C-13.12144695 12.3585147 -13.542797 11.2702583 -13.5 8.53125 C-13.51546875 7.54125 -13.51546875 7.54125 -13.53125 6.53125 C-11.69061453 -0.39820116 -5.94975317 -0.05723107 0 0 Z " fill="#ffffff" transform="translate(93,223.46875)"/>
</svg>
