<?xml version="1.0" encoding="UTF-8"?>
<svg version="1.1" xmlns="http://www.w3.org/2000/svg" width="1280" height="523">
<path d="M0 0 C0.69771011 0.00359528 1.39542023 0.00719055 2.11427307 0.01089478 C3.2117688 0.01067574 3.2117688 0.01067574 4.33143616 0.01045227 C6.76094989 0.0111515 9.19038789 0.01894432 11.61988831 0.02676392 C13.29997719 0.02862806 14.98006662 0.03005198 16.66015625 0.03105164 C21.09071849 0.03487709 25.52124815 0.04470761 29.95179749 0.05575562 C34.46941182 0.06596914 38.98703139 0.07054913 43.50465393 0.07559204 C52.37511098 0.08632986 61.24554381 0.10340661 70.11598206 0.12442017 C71.35583437 3.77946152 72.43959312 7.29748769 73.12379456 11.09707642 C73.30184631 12.06089233 73.47989807 13.02470825 73.66334534 14.01773071 C73.85396545 15.06356323 74.04458557 16.10939575 74.24098206 17.18692017 C76.66725377 30.16945332 79.4329402 43.06665489 82.26100159 55.96646118 C84.31272001 65.33403067 86.26804445 74.71401206 88.11598206 84.12442017 C92.91468216 108.5479672 92.91468216 108.5479672 98.17848206 132.87442017 C100.25662514 142.03198165 102.12540008 151.20942659 103.86598206 160.43692017 C106.35636031 173.61636611 109.17019836 186.71323303 112.05348206 199.81192017 C115.1365548 213.82429892 118.11524807 227.84317733 120.80348206 241.93692017 C123.02230926 253.56697584 125.33580128 265.1693727 127.80348206 276.74942017 C127.9506366 277.44077057 128.09779114 278.13212097 128.24940491 278.84442139 C129.61297309 285.23982985 130.99439084 291.63071165 132.44410706 298.00723267 C132.63529114 298.84947388 132.82647522 299.69171509 133.02345276 300.55947876 C133.36011011 302.02985417 133.70181389 303.49909035 134.05030823 304.96670532 C134.84534633 308.41083349 135.38463576 311.58605434 135.11598206 315.12442017 C133.1131266 317.12727562 129.06794276 316.28161298 126.32325745 316.28555298 C125.50702408 316.29051788 124.69079071 316.29548279 123.849823 316.30059814 C121.137753 316.31525644 118.42574148 316.32202745 115.71363831 316.32754517 C113.83655799 316.33329312 111.95947771 316.33905089 110.08239746 316.34481812 C106.14217351 316.35533823 102.20197004 316.36117443 98.26173401 316.36465454 C93.20275597 316.3701447 88.14404636 316.39417956 83.08515263 316.4226265 C79.20678913 316.44121147 75.32849086 316.44645623 71.45008659 316.44799042 C69.58448759 316.45102632 67.71888998 316.45908617 65.85333443 316.4721756 C63.24804634 316.48915178 60.6434215 316.48737689 58.0381012 316.48086548 C57.26140076 316.49008026 56.48470032 316.49929504 55.6844635 316.50878906 C53.53872681 316.49191284 53.53872681 316.49191284 50.11598206 316.12442017 C47.84124372 312.71231267 47.40030354 310.27902385 46.64332581 306.26113892 C46.5153511 305.59153641 46.3873764 304.9219339 46.25552368 304.23204041 C45.84840774 302.09316097 45.45090634 299.95261924 45.05348206 297.81192017 C44.78261167 296.3827672 44.51113375 294.95372924 44.23902893 293.52481079 C43.14105888 287.73345305 42.07836501 281.94001712 41.11598206 276.12442017 C26.42520744 275.8572627 11.73600556 275.68838715 -2.95715904 275.63476467 C-9.78071117 275.60759954 -16.60121367 275.54894734 -23.42356873 275.41470337 C-30.01181365 275.28515622 -36.59673534 275.24529148 -43.18649673 275.25932503 C-45.69608087 275.25016406 -48.20574319 275.21128919 -50.71438217 275.14181328 C-63.49494911 274.2574041 -63.49494911 274.2574041 -74.90010834 278.78714561 C-78.23097764 282.80296862 -80.29190293 287.2141381 -82.09611893 292.07865524 C-83.18721802 294.91167343 -84.66564843 297.47362461 -86.19651794 300.08926392 C-87.56589458 302.61271859 -88.92643359 305.14078491 -90.28636169 307.66934204 C-90.95345154 308.89814087 -90.95345154 308.89814087 -91.63401794 310.15176392 C-92.02073669 310.87098022 -92.40745544 311.59019653 -92.80589294 312.33120728 C-93.88401794 314.12442017 -93.88401794 314.12442017 -95.88401794 316.12442017 C-98.56465222 316.31241307 -101.14111252 316.37624007 -103.82200623 316.35147095 C-105.0513942 316.35190903 -105.0513942 316.35190903 -106.30561829 316.35235596 C-109.02196237 316.35095961 -111.73803412 316.33538417 -114.45433044 316.31973267 C-116.33477122 316.31600362 -118.21521394 316.31315614 -120.09565735 316.31115723 C-125.05067792 316.30351224 -130.00558169 316.28385635 -134.96055603 316.26174927 C-140.01445434 316.24130944 -145.06837148 316.2321595 -150.12229919 316.22207642 C-160.0429235 316.20061126 -169.96346102 316.16646491 -179.88401794 316.12442017 C-180.21401794 315.46442017 -180.54401794 314.80442017 -180.88401794 314.12442017 C-180.02635193 312.07510376 -180.02635193 312.07510376 -178.63011169 309.52285767 C-177.85292786 308.09236084 -177.85292786 308.09236084 -177.06004333 306.63296509 C-176.48632996 305.59889526 -175.91261658 304.56482544 -175.32151794 303.49942017 C-174.7381366 302.43505737 -174.15475525 301.37069458 -173.55369568 300.27407837 C-168.75417902 291.57028175 -163.78726207 282.96621876 -158.73143005 274.40908813 C-153.9221166 266.26523227 -149.41205591 257.97996725 -144.94651794 249.64395142 C-139.49373023 239.46914367 -133.93271048 229.38278229 -128.07151794 219.43692017 C-122.91240055 210.67751392 -117.9055536 201.84486963 -113.00901794 192.93692017 C-112.67640961 192.33204773 -112.34380127 191.72717529 -112.00111389 191.10397339 C-109.62452933 186.77976526 -107.25362586 182.45245433 -104.88401794 178.12442017 C-102.17955843 173.18478728 -99.47245137 168.24663019 -96.75901794 163.31192017 C-96.42664124 162.70718872 -96.09426453 162.10245728 -95.7518158 161.47940063 C-90.66377428 152.23291721 -85.39539016 143.10305451 -80.03416443 134.01211548 C-75.16384975 125.70812852 -70.59453176 117.25910712 -66.06321716 108.76651001 C-61.23947745 99.73835828 -56.23948953 90.82109351 -51.17698669 81.92520142 C-48.2565093 76.79306626 -45.3747837 71.63999665 -42.49925232 66.48257446 C-37.51791639 57.54868609 -32.51020726 48.6391843 -27.25437927 39.8631897 C-23.97435373 34.36780505 -20.92743424 28.75356069 -17.88401794 23.12442017 C-15.78139584 19.24858029 -13.6765559 15.3739483 -11.57151794 11.49942017 C-11.03462341 10.5081311 -10.49772888 9.51684204 -9.94456482 8.49551392 C-9.1778949 7.08592407 -9.1778949 7.08592407 -8.39573669 5.64785767 C-7.93642761 4.801427 -7.47711853 3.95499634 -7.00389099 3.08291626 C-5.05411117 -0.32696683 -3.85708733 0.00838377 0 0 Z M12.11598206 116.12442017 C11.57409241 117.13303101 11.57409241 117.13303101 11.02125549 118.16201782 C4.77123758 129.79147313 -1.48356412 141.41757703 -7.82151794 152.99942017 C-13.15136508 162.74183018 -18.40110293 172.52637903 -23.6337738 182.32119751 C-24.22940125 183.43575317 -24.82502869 184.55030884 -25.43870544 185.69863892 C-26.01201599 186.77291138 -26.58532654 187.84718384 -27.17601013 188.95401001 C-29.35000916 192.98939471 -31.57850895 196.99375129 -33.82200623 200.99087524 C-35.03255622 203.02562002 -35.03255622 203.02562002 -34.88401794 205.12442017 C-12.44401794 205.12442017 9.99598206 205.12442017 33.11598206 205.12442017 C31.87356482 197.04870811 30.59468633 189.25011003 28.72535706 181.33926392 C28.49993729 180.36663101 28.27451752 179.39399811 28.04226685 178.39189148 C27.56521726 176.33490533 27.08614775 174.27838667 26.60514832 172.22232056 C25.3576914 166.8886581 24.12563167 161.55144385 22.89332581 156.21426392 C22.65168198 155.16894501 22.41003815 154.1236261 22.16107178 153.04663086 C19.33049996 140.77075147 16.68165952 128.45831934 14.11598206 116.12442017 C13.45598206 116.12442017 12.79598206 116.12442017 12.11598206 116.12442017 Z " fill="#FFFFFF" transform="translate(684.8840179443359,115.87557983398438)"/>
<path d="M0 0 C1.14540596 0.00436926 1.14540596 0.00436926 2.31395143 0.00882679 C3.11926567 0.00797237 3.92457991 0.00711794 4.75429761 0.00623763 C7.47366211 0.00458036 10.19296596 0.0101082 12.91232485 0.01555592 C14.85333435 0.01583776 16.79434397 0.01568011 18.73535341 0.01511341 C24.02232492 0.01482533 29.30927396 0.02072375 34.59624022 0.02768737 C40.11492561 0.03391917 45.63361146 0.03452457 51.15229982 0.03571278 C61.61060666 0.03882661 72.0689031 0.0470407 82.52720535 0.05706227 C94.43026549 0.0682218 106.33332611 0.07373345 118.23639017 0.0787577 C142.72920425 0.08922327 167.22200908 0.10682371 191.71481508 0.12908131 C191.39994221 2.8553157 191.08351335 5.58135447 190.76619142 8.30730397 C190.67768844 9.074986 190.58918545 9.84266804 190.49800056 10.63361317 C189.87598191 15.96285485 189.11208156 21.23501191 188.09372133 26.50408131 C187.87558023 27.67269703 187.87558023 27.67269703 187.65303224 28.86492115 C187.19978337 31.28734677 186.7389291 33.70823749 186.27731508 36.12908131 C185.82293987 38.5400717 185.37020773 40.95136596 184.91778749 43.36272389 C184.6199646 44.94868389 184.32116704 46.5344612 184.02136415 48.12004811 C182.87796223 54.18561837 181.79815735 60.26110856 180.77598757 66.34831959 C179.96993235 71.03927076 178.8774102 75.47870084 177.71481508 80.12908131 C138.77481508 80.12908131 99.83481508 80.12908131 59.71481508 80.12908131 C59.38481508 83.42908131 59.05481508 86.72908131 58.71481508 90.12908131 C57.06481508 99.36908131 55.41481508 108.60908131 53.71481508 118.12908131 C86.05481508 118.12908131 118.39481508 118.12908131 151.71481508 118.12908131 C148.34066542 131.62567995 148.34066542 131.62567995 146.95309633 136.07439381 C146.64275453 137.07575367 146.33241274 138.07711354 146.01266664 139.10881764 C145.68750063 140.14675465 145.36233461 141.18469166 145.02731508 142.25408131 C144.32019147 144.53139638 143.61316309 146.80874103 142.90622133 149.08611256 C142.54544496 150.24449635 142.1846686 151.40288014 141.81295961 152.59636647 C140.01697493 158.37402282 138.24173708 164.15803987 136.46481508 169.94158131 C135.53069746 172.97799825 134.59637763 176.01433417 133.65817446 179.04949147 C132.98274074 181.25443995 132.31866284 183.4628796 131.66208071 185.6735149 C131.3133893 186.838344 130.96469789 188.00317311 130.60544008 189.20330006 C130.2912311 190.26508473 129.97702211 191.32686939 129.65329164 192.42082936 C128.71481508 195.12908131 128.71481508 195.12908131 126.71481508 198.12908131 C123.90666608 198.44507637 121.31422586 198.56646054 118.50143617 198.56145436 C117.22815714 198.57674183 117.22815714 198.57674183 115.92915529 198.59233814 C113.11545508 198.62260084 110.30209452 198.63175421 107.48825258 198.64080006 C105.54053791 198.65763693 103.59283416 198.67578581 101.64514345 198.69519764 C96.5126607 198.74281159 91.38022225 198.77254712 86.24759096 198.79863697 C81.01261828 198.82838516 75.77779846 198.87493509 70.54294008 198.92009693 C60.26697818 199.00625961 49.99098493 199.07354707 39.71481508 199.12908131 C39.23170307 201.18057697 38.75127086 203.23270381 38.27194399 205.28508717 C37.87019457 206.99915005 37.87019457 206.99915005 37.460329 208.74784046 C36.44141662 213.36906626 35.73261418 218.00572198 35.08981508 222.69158131 C34.84938275 224.40146444 34.6072598 226.11111091 34.36325258 227.82048756 C34.21122377 228.92179005 34.21122377 228.92179005 34.05612367 230.04534107 C33.72045506 232.09464836 33.21846843 234.11446793 32.71481508 236.12908131 C71.65481508 236.12908131 110.59481508 236.12908131 150.71481508 236.12908131 C139.88485075 298.4013762 139.88485075 298.4013762 137.71481508 310.12908131 C137.50103212 311.49021046 137.50103212 311.49021046 137.28293031 312.87883717 C137.09545229 313.62141773 136.90797426 314.3639983 136.71481508 315.12908131 C133.63773744 316.66762013 130.40940135 316.26232973 127.03338808 316.24933583 C126.23130297 316.25019025 125.42921785 316.25104468 124.60282713 316.25192499 C121.90038803 316.25357932 119.19801024 316.24805917 116.4955768 316.2426067 C114.56427188 316.24232479 112.63296686 316.24248263 110.701662 316.2430492 C105.44574039 316.24333704 100.18984143 316.23744256 94.93392509 316.23047525 C89.44594207 316.22423939 83.95795857 316.22363773 78.46997255 316.22244984 C68.07190613 316.21933721 57.67385017 316.21112474 47.27578837 316.20110035 C35.44041839 316.1899371 23.60504793 316.18442823 11.769674 316.17940491 C-12.58195145 316.16894207 -36.9335676 316.15134395 -61.28518492 316.12908131 C-61.13257216 314.55108843 -60.97845873 312.97324065 -60.82372862 311.39545399 C-60.7380708 310.51677442 -60.65241297 309.63809485 -60.56415945 308.73278862 C-60.16607895 305.01744908 -59.59092992 301.34186188 -58.98049742 297.65642506 C-58.85585112 296.88963932 -58.73120482 296.12285359 -58.60278136 295.33283192 C-58.34030752 293.72179372 -58.07638775 292.11099047 -57.81106383 290.5004192 C-57.41512143 288.09655213 -57.02356809 285.69200415 -56.63284117 283.28728443 C-53.30605151 262.88484221 -49.56978339 242.55571597 -45.83386046 222.22492176 C-42.33965505 203.20652457 -38.9141148 184.18544743 -35.79849058 165.10106617 C-33.87774591 153.36263928 -31.70307781 141.69096561 -29.39846617 130.02239186 C-27.30180611 119.36506324 -25.48843721 108.67608065 -23.74856383 97.95574147 C-21.45731807 83.9789009 -18.90471413 70.0514121 -16.28811461 56.13249928 C-14.13268784 44.53761955 -12.22290682 32.90306123 -10.3403607 21.26116139 C-10.09931502 19.7861447 -9.85826696 18.31112841 -9.61721617 16.83611256 C-9.30361143 14.89442189 -9.30361143 14.89442189 -8.98367125 12.91350514 C-6.60376809 0.01910497 -6.60376809 0.01910497 0 0 Z " fill="#FFFFFF" transform="translate(353.28518491983414,115.8709186911583)"/>
<path d="M0 0 C0.74446381 0.00359528 1.48892761 0.00719055 2.25595093 0.01089478 C3.0363826 0.01074875 3.81681427 0.01060272 4.62089539 0.01045227 C7.21273534 0.01115158 9.80450432 0.01894481 12.39633179 0.02676392 C14.18852194 0.02862803 15.9807126 0.03005196 17.77290344 0.03105164 C22.49938351 0.03487733 27.22583305 0.04470805 31.95230103 0.05575562 C36.77153104 0.06596863 41.59076596 0.07054902 46.41000366 0.07559204 C55.87290773 0.08633027 65.3357891 0.10340731 74.79867554 0.12442017 C74.24704572 5.59344277 73.53430839 10.96845297 72.49398804 16.37051392 C72.3085141 17.34361008 72.3085141 17.34361008 72.11929321 18.33636475 C71.85777944 19.70764197 71.59486075 21.07865195 71.33059692 22.44940186 C70.63995498 26.03484564 69.96134706 29.62256101 69.28305054 33.21035767 C69.15075043 33.90945755 69.01845032 34.60855743 68.88214111 35.32884216 C67.91875303 40.43890988 67.00885557 45.55444752 66.17367554 50.68692017 C66.06281616 51.3681897 65.95195679 52.04945923 65.83773804 52.75137329 C65.6129903 54.13513989 65.38838189 55.51892912 65.16390991 56.90274048 C63.04063562 69.81837955 60.70520531 82.69652395 58.29867554 95.56192017 C56.75999804 103.7998697 55.28026507 112.04201129 53.92367554 120.31192017 C52.13719264 131.19891318 50.26173581 142.06936212 48.36117554 152.93692017 C48.20877411 153.80871918 48.05637268 154.68051819 47.89935303 155.57873535 C46.07131883 166.02241626 44.19507749 176.45432557 42.23617554 186.87442017 C39.22269597 203.255386 36.53687923 219.69519799 33.79867554 236.12442017 C72.40867554 236.12442017 111.01867554 236.12442017 150.79867554 236.12442017 C149.67385385 248.49745868 149.67385385 248.49745868 148.52914429 254.64395142 C148.34763573 255.63043922 148.34763573 255.63043922 148.16246033 256.63685608 C147.77488829 258.73774492 147.38055227 260.83729925 146.98617554 262.93692017 C146.71449852 264.40459778 146.443345 265.87237239 146.17269897 267.34024048 C145.63494983 270.2532996 145.09480918 273.16589552 144.55209351 276.07803345 C143.54023024 281.5082014 142.54111906 286.94067087 141.54867554 292.37442017 C141.38867065 293.24647095 141.22866577 294.11852173 141.06381226 295.01699829 C139.97891374 300.98103933 139.02446548 306.95119003 138.19320679 312.95645142 C137.79867554 315.12442017 137.79867554 315.12442017 136.79867554 316.12442017 C134.25671365 316.22217491 131.74194592 316.25437294 129.19953918 316.24467468 C127.99156782 316.24595632 127.99156782 316.24595632 126.759193 316.24726385 C124.03982851 316.24892111 121.32052466 316.24339328 118.60116577 316.23794556 C116.66015626 316.23766371 114.71914665 316.23782137 112.77813721 316.23838806 C107.4911657 316.23867614 102.20421666 316.23277772 96.91725039 316.2258141 C91.39856501 316.21958231 85.87987916 316.21897691 80.3611908 316.2177887 C69.90288396 316.21467486 59.44458752 316.20646078 48.98628527 316.19643921 C37.08322513 316.18527968 25.18016451 316.17976802 13.27710044 316.17474377 C-11.21571363 316.16427821 -35.70851847 316.14667777 -60.20132446 316.12442017 C-61.45190317 311.92568557 -60.74115865 308.44903207 -59.90835571 304.22988892 C-59.76227875 303.45385315 -59.61620178 302.67781738 -59.46569824 301.87826538 C-58.98919802 299.35467092 -58.50138634 296.83339841 -58.01382446 294.31192017 C-57.68509989 292.57781704 -57.35738497 290.84352221 -57.03067017 289.10903931 C-56.54282676 286.51937998 -56.05450614 283.92982629 -55.56312561 281.34083557 C-54.28229116 274.59076813 -53.05741534 267.83239251 -51.88882446 261.06192017 C-51.65268433 259.69595703 -51.65268433 259.69595703 -51.41177368 258.30239868 C-50.45118324 252.6964941 -49.56191471 247.08248993 -48.72183228 241.45718384 C-48.15535943 237.83011026 -47.53105872 234.21520313 -46.88882446 230.60098267 C-46.69461159 229.5046048 -46.69461159 229.5046048 -46.49647522 228.38607788 C-44.94555806 219.65225689 -43.36362371 210.92403666 -41.77676392 202.19668579 C-41.26693245 199.39152074 -40.75851447 196.58610186 -40.25015259 193.78067017 C-38.40281534 183.60619651 -36.52060974 173.43984479 -34.54875183 163.28866577 C-33.3340819 156.98919402 -32.31143646 150.67114341 -31.34042358 144.3301239 C-30.43750176 138.48418267 -29.41278825 132.66760906 -28.33804321 126.85098267 C-26.49921592 116.81599116 -24.73160566 106.77005717 -22.99438477 96.71704102 C-19.82969161 78.40876757 -16.62141025 60.10831883 -13.38882446 41.81192017 C-13.20018829 40.74422394 -13.01155212 39.67652771 -12.81719971 38.57647705 C-12.63305511 37.5343808 -12.44891052 36.49228455 -12.25918579 35.41860962 C-11.98920021 33.89051918 -11.98920021 33.89051918 -11.71376038 32.33155823 C-11.36421394 30.35510638 -11.01410295 28.37875428 -10.66337585 26.4025116 C-9.86594397 21.90646106 -9.0762763 17.4094549 -8.30923462 12.90811157 C-8.17197464 12.10928055 -8.03471466 11.31044952 -7.89329529 10.4874115 C-7.63971056 9.00880197 -7.38926001 7.52965015 -7.14253235 6.04988098 C-6.15241204 0.30241391 -5.85977911 0.0119424 0 0 Z " fill="#FFFFFF" transform="translate(895.2013244628906,115.87557983398438)"/>
<path d="M0 0 C18.9073477 -0.04686562 37.81468349 -0.08205986 56.72207737 -0.10362434 C65.50248222 -0.11390635 74.28285084 -0.12790737 83.06323242 -0.15087891 C90.72243127 -0.1709075 98.38160386 -0.18373875 106.04082817 -0.18817699 C110.09066805 -0.19076845 114.14043284 -0.1967942 118.19024849 -0.21146011 C122.01431738 -0.22519425 125.83828137 -0.22919124 129.66237259 -0.22621536 C131.054165 -0.22675854 132.44596149 -0.2306406 133.83773232 -0.23841095 C157.41476333 -0.36341079 179.30632609 4.51488299 197.09765625 21.02734375 C203.53363228 27.70119979 208.8564144 34.7128288 213 43 C213.34546875 43.6084375 213.6909375 44.216875 214.046875 44.84375 C224.5334338 63.88088751 223.91135342 88.33446206 218.27270508 108.79711914 C217.26364788 112.22897858 216.15027672 115.61248784 215 119 C214.69191406 119.92167969 214.38382813 120.84335938 214.06640625 121.79296875 C209.25112347 134.91193916 201.43126492 145.85469609 192 156 C191.46600586 156.57782227 190.93201172 157.15564453 190.38183594 157.75097656 C177.92635998 171.08001016 164.3218594 180.92010081 148 189 C148 192.70532752 149.1170956 194.53081893 150.81640625 197.8203125 C151.41259766 198.98723633 152.00878906 200.15416016 152.62304688 201.35644531 C152.94007568 201.97185181 153.25710449 202.5872583 153.58374023 203.22131348 C159.26770931 214.27662624 164.60303976 225.36324271 169 237 C169.26216309 237.68481445 169.52432617 238.36962891 169.79443359 239.07519531 C171.30147791 243.01474162 172.7905055 246.96039432 174.23583984 250.9230957 C174.78773722 252.42309283 175.35214827 253.91850611 175.92431641 255.41088867 C178.78775432 263.00367615 180.94438525 270.7167374 183 278.5625 C183.17297607 279.21731354 183.34595215 279.87212708 183.52416992 280.54678345 C191 308.85264145 191 308.85264145 191 315 C185.70552685 315.8928353 180.67257491 316.11083511 175.31079102 316.02172852 C174.05104713 316.0073172 174.05104713 316.0073172 172.76585388 315.99261475 C170.01178011 315.95984201 167.25787596 315.91942817 164.50390625 315.87890625 C162.58577559 315.85458385 160.66763879 315.83074138 158.74949646 315.80735779 C153.7172645 315.7447277 148.68514218 315.67560205 143.65301514 315.60510254 C138.5115658 315.53422801 133.37003914 315.46952571 128.22851562 315.40429688 C118.15225876 315.27555643 108.07610696 315.13995058 98 315 C97.83264343 314.20678345 97.66528687 313.41356689 97.49285889 312.59631348 C96.72179916 308.94907015 95.9468627 305.30266062 95.171875 301.65625 C94.90874512 300.40875977 94.64561523 299.16126953 94.37451172 297.87597656 C89.1798523 273.48505264 81.7548071 248.9098166 70.765625 226.46875 C70 224 70 224 70.484375 222.03515625 C72.71252888 219.04322797 75.31463684 216.518362 78 213.9375 C82.32816662 209.75878134 82.32816662 209.75878134 86 205 C86.66 205 87.32 205 88 205 C88.24459961 204.42870361 88.48919922 203.85740723 88.74121094 203.26879883 C90.22130522 200.60112695 91.95923182 198.83146239 94.140625 196.69921875 C94.96433594 195.88646484 95.78804688 195.07371094 96.63671875 194.23632812 C97.49910156 193.39521484 98.36148438 192.55410156 99.25 191.6875 C106.10952838 185.01796738 106.10952838 185.01796738 112.484375 177.89453125 C113.31453125 176.93933594 114.1446875 175.98414063 115 175 C115.66 175 116.32 175 117 175 C117.23178955 174.44151367 117.4635791 173.88302734 117.70239258 173.30761719 C119.34019671 170.39500672 121.37538715 168.41809206 123.76171875 166.078125 C124.23060013 165.61444519 124.69948151 165.15076538 125.18257141 164.67303467 C126.67951598 163.19382975 128.18295749 161.72147299 129.6875 160.25 C131.65321238 158.32120693 133.61562279 156.38914432 135.57421875 154.453125 C136.05115173 153.98178131 136.52808472 153.51043762 137.01947021 153.02481079 C140.28976078 149.76852987 143.34915453 146.38867691 146.34399414 142.88085938 C149.35228197 139.46410434 152.62552106 136.31025999 155.875 133.125 C157.2080119 131.81742726 158.53885616 130.50763985 159.8671875 129.1953125 C160.73512939 128.34477295 160.73512939 128.34477295 161.62060547 127.47705078 C163.10372935 126.02889834 163.10372935 126.02889834 164 124 C164.66 124 165.32 124 166 124 C166 123.34 166 122.68 166 122 C166.66 122 167.32 122 168 122 C168.99 120.02 168.99 120.02 170 118 C170.66 118 171.32 118 172 118 C172.99 116.02 172.99 116.02 174 114 C176.64 111.36 179.28 108.72 182 106 C155.6 105.67 129.2 105.34 102 105 C109.37525615 95.16632514 117.12904244 85.80829385 125.19921875 76.55078125 C129.11279194 72.05200085 132.91348873 67.47577601 136.6640625 62.83984375 C140.04618021 58.72813878 143.52630198 54.70209034 147.01586914 50.68139648 C149.17072921 48.18818465 151.16938708 45.74591938 153 43 C153.66 43 154.32 43 155 43 C155.21398437 42.47921875 155.42796875 41.9584375 155.6484375 41.421875 C157.55805943 38.00000911 160.06675888 35.20431398 162.625 32.25 C163.140625 31.64800781 163.65625 31.04601562 164.1875 30.42578125 C165.45469135 28.94739134 166.72685775 27.47326829 168 26 C166.08935701 24.08935701 163.26172105 24.87985389 160.71983337 24.87557983 C159.36469383 24.88097275 159.36469383 24.88097275 157.98217773 24.88647461 C157.03593536 24.88632858 156.08969299 24.88618256 155.11477661 24.8860321 C151.97102608 24.88673164 148.82733399 24.89452591 145.68359375 24.90234375 C143.51025932 24.90420779 141.33692448 24.90563176 139.16358948 24.90663147 C133.43098805 24.91045779 127.69841177 24.92028903 121.96582031 24.93133545 C116.12109721 24.94154713 110.27637007 24.94612857 104.43164062 24.95117188 C92.954416 24.9619112 81.47721009 24.97898898 70 25 C69.69674805 25.61844788 69.39349609 26.23689575 69.08105469 26.87408447 C67.11227888 30.74572123 64.49406648 34.20301394 62 37.75 C61.4534375 38.54277344 60.906875 39.33554688 60.34375 40.15234375 C59.8178125 40.90128906 59.291875 41.65023437 58.75 42.421875 C58.27046875 43.10862305 57.7909375 43.79537109 57.296875 44.50292969 C56.86890625 44.99696289 56.4409375 45.49099609 56 46 C55.34 46 54.68 46 54 46 C53.74347656 46.556875 53.48695313 47.11375 53.22265625 47.6875 C51.83177231 50.31818144 50.20262839 52.60370448 48.4375 55 C47.72207031 55.97195312 47.00664063 56.94390625 46.26953125 57.9453125 C45.14611328 59.45738281 45.14611328 59.45738281 44 61 C43.28199219 61.96679688 42.56398438 62.93359375 41.82421875 63.9296875 C38.03143223 69.009192 34.19386128 74.05039845 30.3125 79.0625 C25.49618832 85.28603891 20.84146671 91.6245764 16.18847656 97.97070312 C11.94123545 103.75289578 7.59735037 109.44770051 3.19140625 115.109375 C0.44214912 118.73584609 -2.11504264 122.47442746 -4.625 126.26953125 C-5.07875 126.84058594 -5.5325 127.41164063 -6 128 C-6.66 128 -7.32 128 -8 128 C-8.25394531 128.72703125 -8.50789063 129.4540625 -8.76953125 130.203125 C-10.08002485 133.18189776 -11.61065309 135.25288741 -13.6875 137.75 C-17.07210348 141.86207745 -20.3437883 146.03631521 -23.5546875 150.28515625 C-25 152 -25 152 -27 153 C-21.89366801 121.99342217 -16.67242083 91.00483492 -10.84790039 60.12402344 C-8.77127038 48.99745178 -6.94723125 37.82866461 -5.14233398 26.65527344 C-4.90479131 25.20117087 -4.66724274 23.74706927 -4.4296875 22.29296875 C-4.22585449 21.0299292 -4.02202148 19.76688965 -3.81201172 18.46557617 C-3.13306943 14.52680847 -2.29167936 10.62767568 -1.44924927 6.72090149 C-1.1781389 5.46182134 -0.90702854 4.20274118 -0.62770271 2.90550709 C-0.42056082 1.94668975 -0.21341892 0.98787241 0 0 Z " fill="#FFFFFF" transform="translate(76,116)"/>
<path d="M0 0 C0 0.66 0 1.32 0 2 C0.66 2 1.32 2 2 2 C2 2.66 2 3.32 2 4 C2.66 4 3.32 4 4 4 C4 4.66 4 5.32 4 6 C4.66 6 5.32 6 6 6 C9.76054606 13.6699264 9.42120093 21.3399944 9.3125 29.6875 C9.30316959 31.16642168 9.29397456 32.64534423 9.28491211 34.12426758 C9.15826821 47.52893162 8.24466516 60.77515176 6 74 C6.61593018 73.99555878 7.23186035 73.99111755 7.86645508 73.98654175 C14.35690966 73.9418217 20.84731952 73.91193471 27.33789062 73.89013672 C29.75066917 73.8801639 32.1634359 73.86658082 34.57617188 73.84912109 C84.51016201 73.49718169 84.51016201 73.49718169 99.75 86.3125 C104.59902066 92.10438579 106.66481402 96.00666879 106.3203125 103.57421875 C105.29338917 111.35128444 101.13717968 115.50451616 95.25 120.1875 C82.5714986 127.2582027 63.66847344 126.24277596 49.5546875 126.65844727 C44.59524776 126.81127994 39.89006703 127.11896837 35 128 C31.4017037 128.29056791 27.79513026 128.43630579 24.18945312 128.60546875 C21.22225199 128.75871689 18.40439373 128.91496394 15.4921875 129.52734375 C11.89914513 130.20878282 8.32874478 130.10480222 4.6875 130.0625 C3.94693359 130.05798828 3.20636719 130.05347656 2.44335938 130.04882812 C0.62887101 130.03712175 -1.18557534 130.01918898 -3 130 C-5.72025557 140.43915335 -7.43996248 150.76174584 -8.5 161.5 C-11.0117142 186.79924983 -13.97511952 211.21601594 -26 234 C-26.66 234 -27.32 234 -28 234 C-28.33 235.32 -28.66 236.64 -29 238 C-29.66 238 -30.32 238 -31 238 C-31 238.66 -31 239.32 -31 240 C-31.66 240 -32.32 240 -33 240 C-33 240.66 -33 241.32 -33 242 C-34.65 242.66 -36.3 243.32 -38 244 C-38 244.66 -38 245.32 -38 246 C-39.32 246 -40.64 246 -42 246 C-42 246.66 -42 247.32 -42 248 C-42.94359375 248.27263672 -42.94359375 248.27263672 -43.90625 248.55078125 C-47.98548871 249.74875045 -51.99845507 250.95740061 -55.9375 252.5625 C-64.75224462 255.91899167 -73.91596617 256.32071238 -83.25 256.25 C-84.28640625 256.25773437 -85.3228125 256.26546875 -86.390625 256.2734375 C-91.98643178 256.25916248 -96.71804167 255.88001907 -102 254 C-102 253.34 -102 252.68 -102 252 C-102.99 252 -103.98 252 -105 252 C-105 251.34 -105 250.68 -105 250 C-105.99 250 -106.98 250 -108 250 C-111.46590351 244.3679068 -112.01334308 239.35737524 -110.53125 232.984375 C-109.77270458 230.61843572 -108.89379614 228.31849375 -108 226 C-107.57460937 224.80117187 -107.14921875 223.60234375 -106.7109375 222.3671875 C-104.32565118 215.69770461 -101.75681756 209.30468 -98.5 203 C-88.66715245 183.89741952 -83.51257132 162.64573577 -78 142 C-81.9165115 142.50199543 -85.59455813 143.03220934 -89.3125 144.375 C-93.51381125 145.8501592 -97.75174154 147.12318507 -102.03125 148.3515625 C-103.97959154 148.82945524 -103.97959154 148.82945524 -105 150 C-106.66617115 150.04063832 -108.33388095 150.042721 -110 150 C-110 150.66 -110 151.32 -110 152 C-110.96099609 152.27263672 -110.96099609 152.27263672 -111.94140625 152.55078125 C-115.94318038 153.71374094 -119.87879349 154.85814731 -123.6875 156.5625 C-129.57606543 159.11791519 -135.16879797 160.30408027 -141.5625 160.75 C-142.82191406 160.84796875 -144.08132813 160.9459375 -145.37890625 161.046875 C-150.05965219 160.98628282 -153.49348504 160.12988622 -157.25 157.3125 C-161.61881412 151.53942419 -161.31104652 144.89486462 -161 138 C-160.98195313 137.19433594 -160.96390625 136.38867188 -160.9453125 135.55859375 C-160.42205534 125.9706758 -156.42957068 114.96212419 -149.23046875 108.3828125 C-147.99935423 107.33473538 -146.75291677 106.30425061 -145.48828125 105.296875 C-143.86616616 104.04943835 -143.86616616 104.04943835 -143 102 C-142.01 102 -141.02 102 -140 102 C-140 101.34 -140 100.68 -140 100 C-137.35261084 98.5393715 -136.10551666 98 -133 98 C-133 97.34 -133 96.68 -133 96 C-131.58774074 95.32404685 -130.16997095 94.65959941 -128.75 94 C-127.96109375 93.62875 -127.1721875 93.2575 -126.359375 92.875 C-124 92 -124 92 -120 92 C-120 91.34 -120 90.68 -120 90 C-119.21753906 89.79503906 -118.43507813 89.59007813 -117.62890625 89.37890625 C-116.61699219 89.10949219 -115.60507813 88.84007813 -114.5625 88.5625 C-113.55316406 88.29566406 -112.54382812 88.02882813 -111.50390625 87.75390625 C-109.08247999 87.24021923 -109.08247999 87.24021923 -108 86 C-107.01 85.87625 -106.02 85.7525 -105 85.625 C-102.0679751 85.24879314 -99.47358761 84.54728052 -96.6875 83.5625 C-89.04474024 80.91145812 -81.39713593 79.81361102 -73.34765625 79.24609375 C-70.84905665 79.06946358 -70.84905665 79.06946358 -68 78 C-66.60560336 77.93334624 -65.20830125 77.91461801 -63.8125 77.9375 C-62.554375 77.958125 -61.29625 77.97875 -60 78 C-56.97526403 56.56239987 -54.28549076 35.26271198 -53.21777344 13.62670898 C-53.0016905 11.02039022 -52.56499002 8.55140943 -52 6 C-51.34 6 -50.68 6 -50 6 C-49.78472656 5.38382813 -49.56945313 4.76765625 -49.34765625 4.1328125 C-46.63355931 -0.16254091 -40.65936682 -0.68537216 -36 -2 C-35.28714844 -2.22945312 -34.57429688 -2.45890625 -33.83984375 -2.6953125 C-23.02579736 -5.74818444 -9.73158207 -5.76686345 0 0 Z " fill="#FFFFFF" transform="translate(1150,28)"/>
<path d="M0 0 C1.29461655 0.00222061 2.58923309 0.00444122 3.92308044 0.00672913 C4.99131546 0.00651009 4.99131546 0.00651009 6.08113098 0.00628662 C8.4457143 0.00698581 10.81021979 0.01477846 13.17478943 0.02259827 C14.81003781 0.02446243 16.44528675 0.02588634 18.08053589 0.02688599 C22.39273103 0.03071134 26.7048927 0.04054177 31.01707458 0.05158997 C35.41404263 0.06180371 39.81101607 0.06638353 44.20799255 0.07142639 C52.84147149 0.08216402 61.47492317 0.09924065 70.10838318 0.12025452 C68.98386591 3.09219302 67.88544526 5.45466139 66.10838318 8.12025452 C65.44838318 8.12025452 64.78838318 8.12025452 64.10838318 8.12025452 C64.10838318 8.78025452 64.10838318 9.44025452 64.10838318 10.12025452 C63.44838318 10.12025452 62.78838318 10.12025452 62.10838318 10.12025452 C61.73713318 10.92462952 61.73713318 10.92462952 61.35838318 11.74525452 C59.80185781 14.70265271 58.07402645 17.41749502 56.10838318 20.12025452 C55.44838318 20.12025452 54.78838318 20.12025452 54.10838318 20.12025452 C54.10838318 20.78025452 54.10838318 21.44025452 54.10838318 22.12025452 C53.44838318 22.12025452 52.78838318 22.12025452 52.10838318 22.12025452 C51.84025818 22.69259827 51.57213318 23.26494202 51.29588318 23.85462952 C50.06705682 26.19910086 48.68316142 28.24430389 47.10838318 30.37025452 C46.59275818 31.07666077 46.07713318 31.78306702 45.54588318 32.51087952 C45.07150818 33.04197327 44.59713318 33.57306702 44.10838318 34.12025452 C43.44838318 34.12025452 42.78838318 34.12025452 42.10838318 34.12025452 C42.10838318 34.78025452 42.10838318 35.44025452 42.10838318 36.12025452 C41.44838318 36.12025452 40.78838318 36.12025452 40.10838318 36.12025452 C39.79900818 36.73900452 39.48963318 37.35775452 39.17088318 37.99525452 C38.48338318 39.37025452 37.79588318 40.74525452 37.10838318 42.12025452 C36.44838318 42.12025452 35.78838318 42.12025452 35.10838318 42.12025452 C34.79900818 42.73900452 34.48963318 43.35775452 34.17088318 43.99525452 C33.48338318 45.37025452 32.79588318 46.74525452 32.10838318 48.12025452 C31.44838318 48.12025452 30.78838318 48.12025452 30.10838318 48.12025452 C30.10838318 48.78025452 30.10838318 49.44025452 30.10838318 50.12025452 C29.44838318 50.12025452 28.78838318 50.12025452 28.10838318 50.12025452 C27.81963318 50.69775452 27.53088318 51.27525452 27.23338318 51.87025452 C25.67088318 54.99525452 25.67088318 54.99525452 24.10838318 58.12025452 C23.44838318 58.12025452 22.78838318 58.12025452 22.10838318 58.12025452 C22.10838318 58.78025452 22.10838318 59.44025452 22.10838318 60.12025452 C21.44838318 60.12025452 20.78838318 60.12025452 20.10838318 60.12025452 C20.10838318 60.78025452 20.10838318 61.44025452 20.10838318 62.12025452 C19.44838318 62.12025452 18.78838318 62.12025452 18.10838318 62.12025452 C17.64432068 63.04837952 17.64432068 63.04837952 17.17088318 63.99525452 C16.48338318 65.37025452 15.79588318 66.74525452 15.10838318 68.12025452 C14.44838318 68.12025452 13.78838318 68.12025452 13.10838318 68.12025452 C12.81963318 68.69775452 12.53088318 69.27525452 12.23338318 69.87025452 C11.19171651 71.95358785 10.15004985 74.03692118 9.10838318 76.12025452 C8.44838318 76.12025452 7.78838318 76.12025452 7.10838318 76.12025452 C7.10838318 76.78025452 7.10838318 77.44025452 7.10838318 78.12025452 C6.44838318 78.12025452 5.78838318 78.12025452 5.10838318 78.12025452 C5.10838318 78.78025452 5.10838318 79.44025452 5.10838318 80.12025452 C30.51838318 80.12025452 55.92838318 80.12025452 82.10838318 80.12025452 C81.44838318 81.77025452 80.78838318 83.42025452 80.10838318 85.12025452 C79.11838318 85.45025452 78.12838318 85.78025452 77.10838318 86.12025452 C75.94171651 88.03692118 75.94171651 88.03692118 75.10838318 90.12025452 C74.77838318 90.78025452 74.44838318 91.44025452 74.10838318 92.12025452 C73.44838318 92.12025452 72.78838318 92.12025452 72.10838318 92.12025452 C72.10838318 92.78025452 72.10838318 93.44025452 72.10838318 94.12025452 C71.44838318 94.12025452 70.78838318 94.12025452 70.10838318 94.12025452 C70.10838318 94.78025452 70.10838318 95.44025452 70.10838318 96.12025452 C69.44838318 96.12025452 68.78838318 96.12025452 68.10838318 96.12025452 C68.10838318 96.78025452 68.10838318 97.44025452 68.10838318 98.12025452 C67.44838318 98.12025452 66.78838318 98.12025452 66.10838318 98.12025452 C66.10838318 98.78025452 66.10838318 99.44025452 66.10838318 100.12025452 C65.44838318 100.12025452 64.78838318 100.12025452 64.10838318 100.12025452 C64.10838318 100.78025452 64.10838318 101.44025452 64.10838318 102.12025452 C63.44838318 102.12025452 62.78838318 102.12025452 62.10838318 102.12025452 C62.10838318 102.78025452 62.10838318 103.44025452 62.10838318 104.12025452 C61.44838318 104.12025452 60.78838318 104.12025452 60.10838318 104.12025452 C60.10838318 104.78025452 60.10838318 105.44025452 60.10838318 106.12025452 C59.44838318 106.12025452 58.78838318 106.12025452 58.10838318 106.12025452 C58.10838318 106.78025452 58.10838318 107.44025452 58.10838318 108.12025452 C57.44838318 108.12025452 56.78838318 108.12025452 56.10838318 108.12025452 C55.11838318 110.10025452 55.11838318 110.10025452 54.10838318 112.12025452 C53.44838318 112.12025452 52.78838318 112.12025452 52.10838318 112.12025452 C51.11838318 114.10025452 51.11838318 114.10025452 50.10838318 116.12025452 C49.44838318 116.12025452 48.78838318 116.12025452 48.10838318 116.12025452 C47.84025818 116.69775452 47.57213318 117.27525452 47.29588318 117.87025452 C46.07909129 120.17575494 44.80504439 122.14081644 43.10838318 124.12025452 C42.44838318 124.12025452 41.78838318 124.12025452 41.10838318 124.12025452 C41.10838318 124.78025452 41.10838318 125.44025452 41.10838318 126.12025452 C39.61228943 127.55775452 39.61228943 127.55775452 37.67088318 129.12025452 C34.9565008 131.26550495 34.9565008 131.26550495 33.10838318 134.12025452 C32.44838318 134.12025452 31.78838318 134.12025452 31.10838318 134.12025452 C31.10838318 134.78025452 31.10838318 135.44025452 31.10838318 136.12025452 C30.44838318 136.12025452 29.78838318 136.12025452 29.10838318 136.12025452 C29.10838318 136.78025452 29.10838318 137.44025452 29.10838318 138.12025452 C28.44838318 138.12025452 27.78838318 138.12025452 27.10838318 138.12025452 C26.88279724 138.67455139 26.6572113 139.22884827 26.42478943 139.79994202 C24.71972032 142.80531606 22.53038367 144.85012454 20.04588318 147.24525452 C16.64384835 150.36131217 16.64384835 150.36131217 14.10838318 154.12025452 C13.44838318 154.12025452 12.78838318 154.12025452 12.10838318 154.12025452 C12.10838318 154.78025452 12.10838318 155.44025452 12.10838318 156.12025452 C11.44838318 156.12025452 10.78838318 156.12025452 10.10838318 156.12025452 C10.10838318 156.78025452 10.10838318 157.44025452 10.10838318 158.12025452 C9.44838318 158.12025452 8.78838318 158.12025452 8.10838318 158.12025452 C8.10838318 158.78025452 8.10838318 159.44025452 8.10838318 160.12025452 C7.44838318 160.12025452 6.78838318 160.12025452 6.10838318 160.12025452 C6.10838318 160.78025452 6.10838318 161.44025452 6.10838318 162.12025452 C5.44838318 162.12025452 4.78838318 162.12025452 4.10838318 162.12025452 C4.10838318 162.78025452 4.10838318 163.44025452 4.10838318 164.12025452 C3.44838318 164.12025452 2.78838318 164.12025452 2.10838318 164.12025452 C2.10838318 164.78025452 2.10838318 165.44025452 2.10838318 166.12025452 C1.44838318 166.12025452 0.78838318 166.12025452 0.10838318 166.12025452 C-0.55161682 167.44025452 -1.21161682 168.76025452 -1.89161682 170.12025452 C-2.55161682 170.12025452 -3.21161682 170.12025452 -3.89161682 170.12025452 C-4.55161682 171.44025452 -5.21161682 172.76025452 -5.89161682 174.12025452 C-6.55161682 174.12025452 -7.21161682 174.12025452 -7.89161682 174.12025452 C-8.14942932 174.69259827 -8.40724182 175.26494202 -8.67286682 175.85462952 C-10.00527624 178.33154447 -11.542178 180.25437112 -13.39161682 182.37025452 C-14.00005432 183.07666077 -14.60849182 183.78306702 -15.23536682 184.51087952 C-16.89161682 186.12025452 -16.89161682 186.12025452 -18.89161682 186.12025452 C-18.89161682 186.78025452 -18.89161682 187.44025452 -18.89161682 188.12025452 C-19.55161682 188.12025452 -20.21161682 188.12025452 -20.89161682 188.12025452 C-20.89161682 188.78025452 -20.89161682 189.44025452 -20.89161682 190.12025452 C-22.76661682 192.24525452 -22.76661682 192.24525452 -24.89161682 194.12025452 C-25.55161682 194.12025452 -26.21161682 194.12025452 -26.89161682 194.12025452 C-26.89161682 194.78025452 -26.89161682 195.44025452 -26.89161682 196.12025452 C-27.55161682 196.12025452 -28.21161682 196.12025452 -28.89161682 196.12025452 C-28.89161682 196.78025452 -28.89161682 197.44025452 -28.89161682 198.12025452 C-29.55161682 198.12025452 -30.21161682 198.12025452 -30.89161682 198.12025452 C-31.11849182 198.65650452 -31.34536682 199.19275452 -31.57911682 199.74525452 C-33.34731771 202.94485613 -35.42831885 205.41062675 -37.89161682 208.12025452 C-38.55161682 208.12025452 -39.21161682 208.12025452 -39.89161682 208.12025452 C-39.89161682 208.78025452 -39.89161682 209.44025452 -39.89161682 210.12025452 C-40.55161682 210.12025452 -41.21161682 210.12025452 -41.89161682 210.12025452 C-41.89161682 210.78025452 -41.89161682 211.44025452 -41.89161682 212.12025452 C-42.55161682 212.12025452 -43.21161682 212.12025452 -43.89161682 212.12025452 C-43.89161682 212.78025452 -43.89161682 213.44025452 -43.89161682 214.12025452 C-44.55161682 214.12025452 -45.21161682 214.12025452 -45.89161682 214.12025452 C-45.89161682 214.78025452 -45.89161682 215.44025452 -45.89161682 216.12025452 C-46.55161682 216.12025452 -47.21161682 216.12025452 -47.89161682 216.12025452 C-47.89161682 216.78025452 -47.89161682 217.44025452 -47.89161682 218.12025452 C-48.55161682 218.12025452 -49.21161682 218.12025452 -49.89161682 218.12025452 C-49.89161682 218.78025452 -49.89161682 219.44025452 -49.89161682 220.12025452 C-50.55161682 220.12025452 -51.21161682 220.12025452 -51.89161682 220.12025452 C-51.89161682 220.78025452 -51.89161682 221.44025452 -51.89161682 222.12025452 C-52.55161682 222.12025452 -53.21161682 222.12025452 -53.89161682 222.12025452 C-53.89161682 222.78025452 -53.89161682 223.44025452 -53.89161682 224.12025452 C-54.55161682 224.12025452 -55.21161682 224.12025452 -55.89161682 224.12025452 C-55.89161682 224.78025452 -55.89161682 225.44025452 -55.89161682 226.12025452 C-56.55161682 226.12025452 -57.21161682 226.12025452 -57.89161682 226.12025452 C-58.11849182 226.67712952 -58.34536682 227.23400452 -58.57911682 227.80775452 C-60.27304918 230.79230201 -62.40776381 232.74679497 -64.89161682 235.12025452 C-66.14574098 236.345213 -67.39560988 237.57454026 -68.64161682 238.80775452 C-69.23458557 239.3891217 -69.82755432 239.97048889 -70.43849182 240.56947327 C-71.98803486 242.07539425 -71.98803486 242.07539425 -72.89161682 244.12025452 C-73.55161682 244.12025452 -74.21161682 244.12025452 -74.89161682 244.12025452 C-74.89161682 244.78025452 -74.89161682 245.44025452 -74.89161682 246.12025452 C-75.55161682 246.12025452 -76.21161682 246.12025452 -76.89161682 246.12025452 C-76.89161682 246.78025452 -76.89161682 247.44025452 -76.89161682 248.12025452 C-77.55161682 248.12025452 -78.21161682 248.12025452 -78.89161682 248.12025452 C-79.88161682 250.10025452 -79.88161682 250.10025452 -80.89161682 252.12025452 C-81.55161682 252.12025452 -82.21161682 252.12025452 -82.89161682 252.12025452 C-81.45738208 247.41190816 -79.50631644 243.11223639 -77.26661682 238.74525452 C-76.54515499 237.32082988 -75.82380392 235.89634913 -75.10255432 234.47181702 C-74.73484924 233.74897522 -74.36714417 233.02613342 -73.98829651 232.28138733 C-72.27353657 228.90225666 -70.58339696 225.51093015 -68.89161682 222.12025452 C-68.22501462 220.788191 -67.55834778 219.45615984 -66.89161682 218.12416077 C-65.55279313 215.44716712 -64.22005015 212.76726224 -62.89161682 210.08509827 C-59.6754497 203.60328453 -56.40347416 197.16884052 -52.95411682 190.80775452 C-48.57711413 182.72394356 -44.68943887 174.41546354 -40.81788635 166.08045959 C-39.87176334 164.07823985 -38.88911548 162.09731122 -37.89161682 160.12025452 C-37.23161682 160.12025452 -36.57161682 160.12025452 -35.89161682 160.12025452 C-35.74724182 159.35712952 -35.60286682 158.59400452 -35.45411682 157.80775452 C-34.89161682 155.12025452 -34.89161682 155.12025452 -33.89161682 152.12025452 C-33.23161682 152.12025452 -32.57161682 152.12025452 -31.89161682 152.12025452 C-31.76706116 151.55040833 -31.64250549 150.98056213 -31.51417542 150.39344788 C-30.86460161 148.02161191 -29.98452341 145.96974362 -28.93067932 143.74916077 C-28.54138245 142.92738342 -28.15208557 142.10560608 -27.75099182 141.25892639 C-27.34364807 140.40878967 -26.93630432 139.55865295 -26.51661682 138.68275452 C-26.11700745 137.83648499 -25.71739807 136.99021545 -25.30567932 136.11830139 C-23.32494964 131.9581175 -21.27313697 128.08945477 -18.89161682 124.12025452 C-44.30161682 124.12025452 -69.71161682 124.12025452 -95.89161682 124.12025452 C-93.91161682 120.82025452 -91.93161682 117.52025452 -89.89161682 114.12025452 C-89.23161682 114.12025452 -88.57161682 114.12025452 -87.89161682 114.12025452 C-87.89161682 113.46025452 -87.89161682 112.80025452 -87.89161682 112.12025452 C-87.23161682 112.12025452 -86.57161682 112.12025452 -85.89161682 112.12025452 C-85.60286682 111.35712952 -85.31411682 110.59400452 -85.01661682 109.80775452 C-83.89161682 107.12025452 -83.89161682 107.12025452 -81.89161682 104.12025452 C-81.23161682 104.12025452 -80.57161682 104.12025452 -79.89161682 104.12025452 C-79.60286682 103.54275452 -79.31411682 102.96525452 -79.01661682 102.37025452 C-77.97495015 100.28692118 -76.93328349 98.20358785 -75.89161682 96.12025452 C-75.23161682 96.12025452 -74.57161682 96.12025452 -73.89161682 96.12025452 C-73.23161682 94.14025452 -72.57161682 92.16025452 -71.89161682 90.12025452 C-71.23161682 90.12025452 -70.57161682 90.12025452 -69.89161682 90.12025452 C-69.64411682 89.58400452 -69.39661682 89.04775452 -69.14161682 88.49525452 C-67.58509146 85.53785632 -65.85726009 82.82301401 -63.89161682 80.12025452 C-63.23161682 80.12025452 -62.57161682 80.12025452 -61.89161682 80.12025452 C-61.63509338 79.3919342 -61.37856995 78.66361389 -61.11427307 77.91322327 C-59.83556594 74.99221496 -58.33569201 72.90012986 -56.32911682 70.43275452 C-53.86689251 67.43249131 -53.86689251 67.43249131 -51.89161682 64.12025452 C-51.23161682 64.12025452 -50.57161682 64.12025452 -49.89161682 64.12025452 C-49.89161682 63.46025452 -49.89161682 62.80025452 -49.89161682 62.12025452 C-49.23161682 62.12025452 -48.57161682 62.12025452 -47.89161682 62.12025452 C-47.23161682 60.14025452 -46.57161682 58.16025452 -45.89161682 56.12025452 C-45.23161682 56.12025452 -44.57161682 56.12025452 -43.89161682 56.12025452 C-43.60286682 55.54275452 -43.31411682 54.96525452 -43.01661682 54.37025452 C-41.97495015 52.28692118 -40.93328349 50.20358785 -39.89161682 48.12025452 C-39.23161682 48.12025452 -38.57161682 48.12025452 -37.89161682 48.12025452 C-37.89161682 47.46025452 -37.89161682 46.80025452 -37.89161682 46.12025452 C-37.23161682 46.12025452 -36.57161682 46.12025452 -35.89161682 46.12025452 C-35.23161682 44.14025452 -34.57161682 42.16025452 -33.89161682 40.12025452 C-33.23161682 40.12025452 -32.57161682 40.12025452 -31.89161682 40.12025452 C-31.89161682 39.46025452 -31.89161682 38.80025452 -31.89161682 38.12025452 C-31.23161682 38.12025452 -30.57161682 38.12025452 -29.89161682 38.12025452 C-28.90161682 35.15025452 -28.90161682 35.15025452 -27.89161682 32.12025452 C-27.23161682 32.12025452 -26.57161682 32.12025452 -25.89161682 32.12025452 C-25.60286682 31.54275452 -25.31411682 30.96525452 -25.01661682 30.37025452 C-23.97495015 28.28692118 -22.93328349 26.20358785 -21.89161682 24.12025452 C-21.23161682 24.12025452 -20.57161682 24.12025452 -19.89161682 24.12025452 C-19.58224182 23.50150452 -19.27286682 22.88275452 -18.95411682 22.24525452 C-18.26661682 20.87025452 -17.57911682 19.49525452 -16.89161682 18.12025452 C-16.23161682 18.12025452 -15.57161682 18.12025452 -14.89161682 18.12025452 C-14.56161682 16.80025452 -14.23161682 15.48025452 -13.89161682 14.12025452 C-13.23161682 14.12025452 -12.57161682 14.12025452 -11.89161682 14.12025452 C-11.60286682 13.54275452 -11.31411682 12.96525452 -11.01661682 12.37025452 C-9.97495015 10.28692118 -8.93328349 8.20358785 -7.89161682 6.12025452 C-7.23161682 6.12025452 -6.57161682 6.12025452 -5.89161682 6.12025452 C-5.42755432 4.91369202 -5.42755432 4.91369202 -4.95411682 3.68275452 C-3.48725354 0.14502544 -3.48725354 0.14502544 0 0 Z " fill="#FFFFFF" transform="translate(153.89161682128906,149.87974548339844)"/>
<path d="M0 0 C1.29461655 0.00222061 2.58923309 0.00444122 3.92308044 0.00672913 C4.99131546 0.00651009 4.99131546 0.00651009 6.08113098 0.00628662 C8.4457143 0.00698581 10.81021979 0.01477846 13.17478943 0.02259827 C14.81003781 0.02446243 16.44528675 0.02588634 18.08053589 0.02688599 C22.39273103 0.03071134 26.7048927 0.04054177 31.01707458 0.05158997 C35.41404263 0.06180371 39.81101607 0.06638353 44.20799255 0.07142639 C52.84147149 0.08216402 61.47492317 0.09924065 70.10838318 0.12025452 C65.69278847 9.64471362 61.20173437 19.10336059 56.26463318 28.37025452 C52.56079734 35.32249209 48.96550716 42.31973542 45.45213318 49.37025452 C44.97324646 50.33125061 44.49435974 51.2922467 44.0009613 52.28236389 C42.53522841 55.22756479 41.07143297 58.17371993 39.60838318 61.12025452 C33.30622847 73.8125887 26.94644512 86.45986377 20.29441833 98.97303772 C17.11136828 104.97533421 14.09920954 111.06275462 11.08494568 117.15101624 C9.39344184 120.56193373 7.68751783 123.9656352 5.98338318 127.37025452 C5.32446457 128.68793063 4.66560906 130.00563829 4.00682068 131.32337952 C1.37400818 136.58900452 -1.25880432 141.85462952 -3.89161682 147.12025452 C-7.6828828 147.31653866 -11.47463854 147.50079347 -15.26661682 147.68275452 C-16.3468512 147.73882874 -17.42708557 147.79490295 -18.54005432 147.85267639 C-19.57130432 147.90101624 -20.60255432 147.94935608 -21.66505432 147.99916077 C-22.61815491 148.04629211 -23.57125549 148.09342346 -24.55323792 148.14198303 C-26.89161682 148.12025452 -26.89161682 148.12025452 -28.89161682 147.12025452 C-28.00460001 137.66652269 -26.84217849 128.32889255 -25.08302307 118.99525452 C-24.72359292 117.05313496 -24.36472653 115.110911 -24.00636292 113.16859436 C-23.82200684 112.17237061 -23.63765076 111.17614685 -23.44770813 110.1497345 C-22.53505994 105.17780025 -21.65599657 100.20002777 -20.77833557 95.22181702 C-20.51198303 93.71254135 -20.51198303 93.71254135 -20.24024963 92.17277527 C-19.87421959 90.09732839 -19.50843913 88.02183747 -19.14289856 85.94630432 C-18.56285798 82.65293981 -17.98192248 79.35973396 -17.40089417 76.06654358 C-15.54224018 65.52637193 -13.69079169 54.98500011 -11.85646057 44.44056702 C-11.61940651 43.07945297 -11.61940651 43.07945297 -11.37756348 41.69084167 C-10.64509405 37.48493838 -9.91429409 33.27876289 -9.18727112 29.07191467 C-7.94208593 21.89321641 -6.65765166 14.723903 -5.25880432 7.57337952 C-5.02016663 6.35295959 -4.78152893 5.13253967 -4.53565979 3.87513733 C-3.66535707 0.15243228 -3.66535707 0.15243228 0 0 Z " fill="#FFFFFF" transform="translate(49.89161682128906,283.87974548339844)"/>
<path d="M0 0 C9.9 0 19.8 0 30 0 C30 0.66 30 1.32 30 2 C30.61875 2.144375 31.2375 2.28875 31.875 2.4375 C34 3 34 3 36 4 C37.94505844 8.40197437 38.211871 11.3544945 37 16 C35.47457627 19.76271186 35.47457627 19.76271186 33 21 C33 21.66 33 22.32 33 23 C33.45375 23.391875 33.9075 23.78375 34.375 24.1875 C36.85635143 26.95516121 37.3929971 29.35798257 38 33 C36.15920976 39.23823359 36.15920976 39.23823359 32.8125 41.4375 C31.9153125 41.7159375 31.9153125 41.7159375 31 42 C31 42.66 31 43.32 31 44 C23.37087517 46.47168075 15.96011213 46.22635304 8 46.125 C6.63932951 46.11494978 5.27865183 46.10582754 3.91796875 46.09765625 C0.61179353 46.0742082 -2.6940088 46.04138856 -6 46 C-7.0027197 42.99184091 -7.02227504 41.90923283 -6.58203125 38.88671875 C-6.46384033 38.06067139 -6.34564941 37.23462402 -6.22387695 36.38354492 C-6.08812256 35.4938501 -5.95236816 34.60415527 -5.8125 33.6875 C-5.67739014 32.77137939 -5.54228027 31.85525879 -5.40307617 30.91137695 C-3.8425534 20.56315484 -1.92446816 10.28595051 0 0 Z M12 10 C11.67 12.31 11.34 14.62 11 17 C12.60379341 17.05416188 14.20811406 17.09286638 15.8125 17.125 C16.70582031 17.14820313 17.59914063 17.17140625 18.51953125 17.1953125 C21.25402714 17.18285827 21.25402714 17.18285827 24 15 C23.50243908 12.24358584 23.50243908 12.24358584 22 10 C20.31391034 9.92794489 18.62499341 9.91613932 16.9375 9.9375 C16.01839844 9.94652344 15.09929688 9.95554687 14.15234375 9.96484375 C13.44207031 9.97644531 12.73179687 9.98804688 12 10 Z M9.3125 28.25 C7.6 30.16875 7.6 30.16875 8 34 C12.62 34 17.24 34 22 34 C22.33 32.02 22.66 30.04 23 28 C21.56274129 27.83126522 20.12518162 27.66509263 18.6875 27.5 C17.48673828 27.36078125 17.48673828 27.36078125 16.26171875 27.21875 C12.55303239 26.73087191 12.55303239 26.73087191 9.3125 28.25 Z " fill="#FFFFFF" transform="translate(706,462)"/>
<path d="M0 0 C4.05676492 -0.04954711 8.11341194 -0.085789 12.17041016 -0.10986328 C13.54967315 -0.11990253 14.92891496 -0.13353677 16.30810547 -0.15087891 C18.2938514 -0.17521754 20.2797545 -0.18543255 22.265625 -0.1953125 C24.05661621 -0.21102295 24.05661621 -0.21102295 25.88378906 -0.22705078 C28.85798164 -0.01034762 30.50318379 0.43813878 33 2 C33 2.66 33 3.32 33 4 C33.928125 4.37125 33.928125 4.37125 34.875 4.75 C37.472695 6.27805588 37.91191182 7.2156346 39 10 C39.61681798 14.66184538 40.12133745 19.74007375 37.984375 24.046875 C35.94327762 26.53062 33.66734241 28.22177173 31 30 C30.01 30 29.02 30 28 30 C28.58910156 30.98742187 29.17820312 31.97484375 29.78515625 32.9921875 C30.54469193 34.28621126 31.30378366 35.58049567 32.0625 36.875 C32.45244141 37.52597656 32.84238281 38.17695313 33.24414062 38.84765625 C34.22444533 40.53065725 35.11898432 42.26296199 36 44 C35.505 44.99 35.505 44.99 35 46 C30.38 46 25.76 46 21 46 C17 39.375 17 39.375 17 36 C16.34 36 15.68 36 15 36 C14.67 35.01 14.34 34.02 14 33 C12.35 32.67 10.7 32.34 9 32 C8.7834375 33.794375 8.7834375 33.794375 8.5625 35.625 C8.14158482 39.11258293 7.579287 42.52427798 7 46 C2.71 46 -1.58 46 -6 46 C-7.10622599 41.57509606 -6.60082564 38.3261069 -5.8203125 33.9453125 C-5.68809296 33.16614471 -5.55587341 32.38697693 -5.41964722 31.584198 C-4.99570833 29.09642389 -4.56055027 26.61076478 -4.125 24.125 C-3.8390961 22.45976361 -3.55393175 20.79440006 -3.26953125 19.12890625 C-2.74433261 16.05924318 -2.21484529 12.9903905 -1.68017578 9.92236328 C-1.10697925 6.61691626 -0.54676292 3.30990332 0 0 Z M13 12 C10.7018576 15.8509288 10.7018576 15.8509288 11 20 C15.62921525 21.0161692 19.34462607 20.83796731 24 20 C25.01540112 15.89776415 25.01540112 15.89776415 24 12 C20.37 12 16.74 12 13 12 Z " fill="#FFFFFF" transform="translate(883,462)"/>
<path d="M0 0 C12.54 0 25.08 0 38 0 C37.34 3.3 36.68 6.6 36 10 C32.19840121 11.90079939 31.01795859 12.24412145 27.015625 12.1953125 C26.08105469 12.18886719 25.14648438 12.18242187 24.18359375 12.17578125 C23.21550781 12.15902344 22.24742187 12.14226562 21.25 12.125 C20.26644531 12.11597656 19.28289063 12.10695313 18.26953125 12.09765625 C15.84610593 12.07412785 13.42317778 12.04125368 11 12 C11 13.65 11 15.3 11 17 C11.65355469 16.82597656 12.30710937 16.65195312 12.98046875 16.47265625 C16.81219707 15.87286437 20.4696844 16.13872881 24.3125 16.4375 C25.42334961 16.51581055 25.42334961 16.51581055 26.55664062 16.59570312 C28.37152709 16.72450152 30.18583325 16.86143262 32 17 C31.85892253 18.45880109 31.71197585 19.91703551 31.5625 21.375 C31.48128906 22.18710937 31.40007813 22.99921875 31.31640625 23.8359375 C31 26 31 26 30 28 C22.74 28 15.48 28 8 28 C8 29.98 8 31.96 8 34 C15.92 34 23.84 34 32 34 C31.34 37.96 30.68 41.92 30 46 C24.89136104 46.0246501 19.78275641 46.04283607 14.67407227 46.05493164 C12.93480832 46.05997204 11.19554864 46.0668043 9.45629883 46.07543945 C6.96174063 46.08751792 4.46723827 46.09323108 1.97265625 46.09765625 C1.19036148 46.10281754 0.40806671 46.10797882 -0.39793396 46.11329651 C-2.26567114 46.11349226 -4.13329204 46.06199694 -6 46 C-6.33 45.67 -6.66 45.34 -7 45 C-6.949028 37.23951255 -5.67028211 29.63446859 -4.16162109 22.04614258 C-3.02045009 16.28524938 -2.18604583 10.52059859 -1.4296875 4.6953125 C-1 2 -1 2 0 0 Z " fill="#FFFFFF" transform="translate(840,462)"/>
<path d="M0 0 C3.83307169 -0.11719175 7.66567608 -0.18758077 11.5 -0.25 C12.57765625 -0.28351562 13.6553125 -0.31703125 14.765625 -0.3515625 C21.35298788 -0.43189619 26.57694121 0.00473692 32 4 C35.57512699 8.12514653 36.90753746 11.54471032 37 17 C35.23879641 25.17413572 35.23879641 25.17413572 31 28 C30.01 28 29.02 28 28 28 C28 28.66 28 29.32 28 30 C27.34 30 26.68 30 26 30 C26.77537109 31.22976562 26.77537109 31.22976562 27.56640625 32.484375 C28.22511719 33.56203125 28.88382813 34.6396875 29.5625 35.75 C30.22378906 36.81734375 30.88507813 37.8846875 31.56640625 38.984375 C33 42 33 42 32.71484375 44.390625 C32.47894531 44.92171875 32.24304688 45.4528125 32 46 C27.90322376 46.4704432 24.07832679 46.69746842 20 46 C17.44132997 43.72378056 16.29808896 41.12932159 15 38 C13.5578092 35.14751227 13.5578092 35.14751227 12 33 C9.9566635 32.34700503 9.9566635 32.34700503 8 32 C7.86722656 32.85464844 7.73445313 33.70929688 7.59765625 34.58984375 C7.42105469 35.69457031 7.24445313 36.79929688 7.0625 37.9375 C6.88847656 39.03964844 6.71445313 40.14179687 6.53515625 41.27734375 C6 44 6 44 5 45 C2.98035801 45.07244053 0.95832876 45.08377188 -1.0625 45.0625 C-2.71958984 45.04896484 -2.71958984 45.04896484 -4.41015625 45.03515625 C-5.26480469 45.02355469 -6.11945313 45.01195312 -7 45 C-8.542933 40.99866041 -7.48329584 37.35225618 -6.625 33.3125 C-5.30224908 26.75527789 -5.30224908 26.75527789 -4.4375 20.125 C-3.77330842 13.17755605 -2.280028 6.59204749 0 0 Z M10 12 C9.814375 13.464375 9.62875 14.92875 9.4375 16.4375 C9.33308594 17.26121094 9.22867188 18.08492187 9.12109375 18.93359375 C9.08113281 19.61550781 9.04117188 20.29742187 9 21 C10.21443275 22.43827256 10.21443275 22.43827256 13.8125 22.1875 C17.02868383 22.13571887 19.37138425 22.02201211 22 20 C23.48396654 18.19907702 23.48396654 18.19907702 24 16 C23.34 14.68 22.68 13.36 22 12 C18.04 12 14.08 12 10 12 Z " fill="#FFFFFF" transform="translate(90,42)"/>
<path d="M0 0 C3.52076232 -0.05855176 7.0413976 -0.0937806 10.5625 -0.125 C11.55314453 -0.14175781 12.54378906 -0.15851562 13.56445312 -0.17578125 C19.12728491 -0.21274359 23.74843075 0.12917449 29 2 C29 2.66 29 3.32 29 4 C29.99 4 30.98 4 32 4 C32 4.66 32 5.32 32 6 C32.66 6 33.32 6 34 6 C34 6.66 34 7.32 34 8 C34.66 8 35.32 8 36 8 C39.29384343 16.29342722 39.79629042 23.24308419 38 32 C37.34 32 36.68 32 36 32 C35.855625 32.61875 35.71125 33.2375 35.5625 33.875 C35 36 35 36 34 38 C33.34 38 32.68 38 32 38 C32 38.66 32 39.32 32 40 C30.65144038 40.65746104 29.29575969 41.30031975 27.9375 41.9375 C27.18339844 42.29714844 26.42929688 42.65679687 25.65234375 43.02734375 C19.34626256 45.3398831 12.40315954 45.32274345 5.75 45.6875 C4.8528125 45.74744141 3.955625 45.80738281 3.03125 45.86914062 C1.73960937 45.9397168 1.73960937 45.9397168 0.421875 46.01171875 C-0.74456543 46.08072388 -0.74456543 46.08072388 -1.93457031 46.15112305 C-4 46 -4 46 -7 44 C-6.32799039 39.34047735 -5.65238655 34.68149424 -4.97363281 30.02294922 C-4.74383411 28.44235897 -4.51497076 26.86163241 -4.28710938 25.28076172 C-3.06453187 16.80315193 -1.7967918 8.37943094 0 0 Z M12 12 C10.20056837 16.79344392 9.43184677 21.32686455 8.875 26.375 C8.74544922 27.47908203 8.74544922 27.47908203 8.61328125 28.60546875 C8.40318115 30.40299182 8.20079233 32.20141342 8 34 C12.0764656 34.1651824 15.07550877 33.9052261 18.8125 32.25 C19.96685547 31.76273438 19.96685547 31.76273438 21.14453125 31.265625 C23.18734347 30.13928402 23.18734347 30.13928402 23.76171875 27.859375 C23.87966797 26.93898438 23.87966797 26.93898438 24 26 C24.66 26 25.32 26 26 26 C26.020625 24.72125 26.04125 23.4425 26.0625 22.125 C26.07410156 21.40570313 26.08570313 20.68640625 26.09765625 19.9453125 C26.12649242 17.91814596 26.12649242 17.91814596 25 16 C24.34 16 23.68 16 23 16 C22.34 14.68 21.68 13.36 21 12 C18.03 12 15.06 12 12 12 Z " fill="#FFFFFF" transform="translate(176,42)"/>
<path d="M0 0 C11.55 0 23.1 0 35 0 C36 3 36 3 34 12 C26.41 12 18.82 12 11 12 C11 13.65 11 15.3 11 17 C17.27 17 23.54 17 30 17 C31 22 31 22 29 28 C22.4 28 15.8 28 9 28 C8.67 29.98 8.34 31.96 8 34 C15.59 34 23.18 34 31 34 C29.875 41.875 29.875 41.875 29 45 C24.03377651 45.02465098 19.06758834 45.04283649 14.10131836 45.05493164 C12.41055684 45.0599719 10.71979971 45.06680405 9.02905273 45.07543945 C6.60399293 45.08751857 4.17899056 45.09323123 1.75390625 45.09765625 C0.61327477 45.10539818 0.61327477 45.10539818 -0.55039978 45.11329651 C-2.3673257 45.11349238 -4.18413127 45.06197277 -6 45 C-6.33 44.67 -6.66 44.34 -7 44 C-6.4261484 37.53288586 -5.49017382 31.11226005 -4.5625 24.6875 C-4.43053223 23.77121826 -4.29856445 22.85493652 -4.16259766 21.91088867 C-1.38489768 2.76979536 -1.38489768 2.76979536 0 0 Z " fill="#FFFFFF" transform="translate(135,42)"/>
<path d="M0 0 C11.55 0 23.1 0 35 0 C36 4 36 4 34 12 C26.41 12.33 18.82 12.66 11 13 C10.67 14.32 10.34 15.64 10 17 C16.6 17 23.2 17 30 17 C31 20 31 20 29 28 C22.07 28 15.14 28 8 28 C8 29.98 8 31.96 8 34 C15.59 34 23.18 34 31 34 C30 44 30 44 29 45 C26.51637366 45.19710716 24.05854023 45.33272619 21.5703125 45.421875 C20.82417694 45.44977112 20.07804138 45.47766724 19.30929565 45.50640869 C17.72729065 45.5628978 16.14518052 45.61650406 14.56298828 45.66748047 C12.14146034 45.74944286 9.72144706 45.85298552 7.30078125 45.95703125 C5.76566998 46.00915448 4.23051393 46.05997838 2.6953125 46.109375 C1.97022491 46.14359558 1.24513733 46.17781616 0.49807739 46.21307373 C-4.48953521 46.33841486 -4.48953521 46.33841486 -6.99487305 44.67749023 C-8.70205493 41.82831687 -7.64544509 39.46367883 -6.9375 36.3125 C-6.63343085 34.88871904 -6.33288633 33.46418251 -6.03515625 32.0390625 C-5.86773926 31.24918945 -5.70032227 30.45931641 -5.52783203 29.64550781 C-4.2935264 23.45913601 -3.36300439 17.2146053 -2.35913086 10.98754883 C-2.19678955 9.9952124 -2.03444824 9.00287598 -1.8671875 7.98046875 C-1.72394043 7.09254639 -1.58069336 6.20462402 -1.43310547 5.28979492 C-1 3 -1 3 0 0 Z " fill="#FFFFFF" transform="translate(224,42)"/>
<path d="M0 0 C5.28 0 10.56 0 16 0 C16.30292969 1.29550781 16.60585938 2.59101563 16.91796875 3.92578125 C17.340578 5.7214879 17.76380188 7.51704996 18.1875 9.3125 C18.40946045 10.25424072 18.6314209 11.19598145 18.86010742 12.16625977 C20.58395946 19.41249754 22.44768317 26.61313644 24.4753418 33.78051758 C25.62263103 37.97031627 26.24356218 41.60892177 26 46 C23.87527424 46.05386629 21.75016348 46.09273071 19.625 46.125 C17.84996094 46.15980469 17.84996094 46.15980469 16.0390625 46.1953125 C13 46 13 46 11 44 C11 42.02 11 40.04 11 38 C5.06 38 -0.88 38 -7 38 C-7.66 39.98 -8.32 41.96 -9 44 C-9.66 44 -10.32 44 -11 44 C-11 44.66 -11 45.32 -11 46 C-15.29 46 -19.58 46 -24 46 C-24.33 45.34 -24.66 44.68 -25 44 C-24.22265625 42.0546875 -24.22265625 42.0546875 -23.0625 39.875 C-22.68222656 39.15054688 -22.30195312 38.42609375 -21.91015625 37.6796875 C-21.45962891 36.84824219 -21.45962891 36.84824219 -21 36 C-20.34 36 -19.68 36 -19 36 C-19 34.68 -19 33.36 -19 32 C-18.34 32 -17.68 32 -17 32 C-16.690625 30.824375 -16.690625 30.824375 -16.375 29.625 C-14.50521355 24.695563 -11.77760575 20.46518182 -9 16 C-7.93347906 14.25244762 -6.87086466 12.50250407 -5.8125 10.75 C-5.11060547 9.59757812 -5.11060547 9.59757812 -4.39453125 8.421875 C-2.81446501 5.67778237 -1.41609701 2.83219402 0 0 Z M4 18 C1.7986134 21.80427492 1.7986134 21.80427492 1 26 C3.31 26 5.62 26 8 26 C7.67 23.36 7.34 20.72 7 18 C6.01 18 5.02 18 4 18 Z " fill="#FFFFFF" transform="translate(965,462)"/>
<path d="M0 0 C1.26457031 0.04640625 2.52914062 0.0928125 3.83203125 0.140625 C5.74048828 0.19476563 5.74048828 0.19476563 7.6875 0.25 C8.66332031 0.29640625 9.63914062 0.3428125 10.64453125 0.390625 C10.80308594 1.04804688 10.96164062 1.70546875 11.125 2.3828125 C12.68713002 8.75216031 14.37438689 15.07673428 16.14453125 21.390625 C16.9801003 24.39000703 17.81269123 27.39020701 18.64453125 30.390625 C18.98226562 31.60492188 19.32 32.81921875 19.66796875 34.0703125 C19.94898438 35.12476563 20.23 36.17921875 20.51953125 37.265625 C20.76445313 38.17054688 21.009375 39.07546875 21.26171875 40.0078125 C21.66155658 42.49659898 21.44801392 44.02420345 20.64453125 46.390625 C18.68649618 46.44451587 16.72804216 46.48336717 14.76953125 46.515625 C13.67898438 46.53882813 12.5884375 46.56203125 11.46484375 46.5859375 C8.64453125 46.390625 8.64453125 46.390625 6.64453125 44.390625 C6.31453125 42.740625 5.98453125 41.090625 5.64453125 39.390625 C0.03453125 39.060625 -5.57546875 38.730625 -11.35546875 38.390625 C-11.35546875 39.050625 -11.35546875 39.710625 -11.35546875 40.390625 C-12.01546875 40.390625 -12.67546875 40.390625 -13.35546875 40.390625 C-14.01546875 42.370625 -14.67546875 44.350625 -15.35546875 46.390625 C-19.97546875 46.390625 -24.59546875 46.390625 -29.35546875 46.390625 C-28.46088779 41.9177202 -27.7035058 39.95701017 -25.35546875 36.265625 C-23.65876776 33.58190083 -22.36289949 31.41291722 -21.35546875 28.390625 C-20.69546875 28.390625 -20.03546875 28.390625 -19.35546875 28.390625 C-19.06671875 27.483125 -18.77796875 26.575625 -18.48046875 25.640625 C-17.59015099 23.06859592 -16.64052462 20.77715734 -15.35546875 18.390625 C-14.69546875 18.390625 -14.03546875 18.390625 -13.35546875 18.390625 C-13.06671875 17.483125 -12.77796875 16.575625 -12.48046875 15.640625 C-11.59015099 13.06859592 -10.64052462 10.77715734 -9.35546875 8.390625 C-8.69546875 8.390625 -8.03546875 8.390625 -7.35546875 8.390625 C-7.25234375 7.813125 -7.14921875 7.235625 -7.04296875 6.640625 C-5.72353877 2.3224905 -4.66841376 0.54347075 0 0 Z M-1.35546875 18.390625 C-3.55685535 22.19489992 -3.55685535 22.19489992 -4.35546875 26.390625 C-2.04546875 26.390625 0.26453125 26.390625 2.64453125 26.390625 C2.31453125 23.750625 1.98453125 21.110625 1.64453125 18.390625 C0.65453125 18.390625 -0.33546875 18.390625 -1.35546875 18.390625 Z " fill="#FFFFFF" transform="translate(771.35546875,461.609375)"/>
<path d="M0 0 C0.99 0.33 1.98 0.66 3 1 C3 1.66 3 2.32 3 3 C3.66 3 4.32 3 5 3 C4.45276317 6.37462715 3.9451 8.08235 2 11 C1.34 11 0.68 11 0 11 C0 11.66 0 12.32 0 13 C-2.61497941 12.55171782 -4.92344056 12.03223556 -7.375 11 C-10.55617053 9.78812551 -13.62924226 9.39655973 -17 9 C-17 9.99 -17 10.98 -17 12 C-16.34 12.33 -15.68 12.66 -15 13 C-15 13.66 -15 14.32 -15 15 C-14.28328125 14.94328125 -13.5665625 14.8865625 -12.828125 14.828125 C-9.44108039 15.03396749 -7.64002439 16.00214094 -4.75 17.75 C-3.87859375 18.26046875 -3.0071875 18.7709375 -2.109375 19.296875 C0.21595722 21.17436546 0.67041512 22.08444144 1 25 C1.66 25 2.32 25 3 25 C3.35261421 29.95618861 3.5637327 33.82917054 1.375 38.375 C-2.31872438 42.45753747 -5.3613216 44.74612025 -10.8828125 45.6015625 C-12.29639147 45.63935518 -13.71107326 45.64609384 -15.125 45.625 C-15.86621094 45.61952148 -16.60742188 45.61404297 -17.37109375 45.60839844 C-24.31300404 45.3476272 -30.50820648 43.40151098 -36 39 C-36.8125 36.796875 -36.8125 36.796875 -37 35 C-36.34 35 -35.68 35 -35 35 C-34.731875 34.401875 -34.46375 33.80375 -34.1875 33.1875 C-33.01506533 31.02775192 -31.80630718 29.64209744 -30 28 C-26 30 -26 30 -24.21875 31.03125 C-21.51477846 32.21185729 -19.18689272 32.41522195 -16.25 32.625 C-15.26515625 32.69976562 -14.2803125 32.77453125 -13.265625 32.8515625 C-12.51796875 32.90054688 -11.7703125 32.94953125 -11 33 C-11.17544467 31.02893982 -11.17544467 31.02893982 -12 29 C-13.87907187 27.96584917 -13.87907187 27.96584917 -16.1875 27.4375 C-20.04220172 26.31680397 -23.45149088 24.91073568 -27 23 C-27 22.34 -27 21.68 -27 21 C-27.66 21 -28.32 21 -29 21 C-29 20.34 -29 19.68 -29 19 C-29.66 19 -30.32 19 -31 19 C-32.30547442 15.08357675 -32.8834299 11.04479473 -32 7 C-29.35451282 2.52543711 -26.37521123 -0.38879501 -21.625 -2.5 C-13.56800059 -3.61131026 -7.59362738 -2.94291182 0 0 Z " fill="#FFFFFF" transform="translate(1029,463)"/>
<path d="M0 0 C1.59415381 3.18830761 0.46260854 6.39590896 -0.109375 9.796875 C-0.2368512 10.58209534 -0.36432739 11.36731567 -0.4956665 12.17633057 C-0.76846231 13.84803685 -1.04441643 15.51923028 -1.32324219 17.18994141 C-1.74117904 19.69708431 -2.14882203 22.20572187 -2.5546875 24.71484375 C-3.2093921 28.72902249 -3.89261721 32.73735125 -4.60083008 36.74243164 C-4.86197988 38.2194055 -5.11914155 39.69709148 -5.37182617 41.17553711 C-5.71345186 43.14641897 -6.08249696 45.11249068 -6.453125 47.078125 C-6.65583008 48.1805957 -6.85853516 49.28306641 -7.06738281 50.41894531 C-8 53 -8 53 -9.58886719 54.35351562 C-13.09201082 55.29279513 -16.52588533 55.28494304 -20.125 55.265625 C-20.90891113 55.26753845 -21.69282227 55.2694519 -22.50048828 55.27142334 C-24.15462567 55.27278175 -25.80877384 55.26910932 -27.46289062 55.26074219 C-29.9911296 55.25003756 -32.51865806 55.26064885 -35.046875 55.2734375 C-36.65625156 55.27211584 -38.26562769 55.26955332 -39.875 55.265625 C-41.00639404 55.27169769 -41.00639404 55.27169769 -42.16064453 55.27789307 C-45.92357595 55.24436433 -48.80710647 55.10421713 -52 53 C-51.18378174 52.19163696 -51.18378174 52.19163696 -50.35107422 51.36694336 C-47.85634784 48.89316992 -45.36565462 46.41537267 -42.875 43.9375 C-42.0190625 43.08994141 -41.163125 42.24238281 -40.28125 41.36914062 C-36.10550324 37.20945443 -32.06705759 33.02682237 -28.28540039 28.50585938 C-26.31885236 26.20202875 -24.16629436 24.11598854 -22 22 C-20.57022747 20.57300305 -19.1420023 19.14445498 -17.71484375 17.71484375 C-11.80989583 11.80989583 -5.90494792 5.90494792 0 0 Z " fill="#FFFFFF" transform="translate(109,377)"/>
<path d="M0 0 C13.86 0 27.72 0 42 0 C41 8 41 8 40 12 C35.38 12 30.76 12 26 12 C25.9175 13.52625 25.835 15.0525 25.75 16.625 C24.95085236 26.52488863 22.86373904 36.25654567 21 46 C16.71 46 12.42 46 8 46 C6.93973586 42.81920758 7.02603563 42.12357729 7.8359375 39.03515625 C9.15929813 33.54710188 9.89937652 28.03146471 10.625 22.4375 C10.82609375 20.92446289 10.82609375 20.92446289 11.03125 19.38085938 C11.35767212 16.92103555 11.67933352 14.46058075 12 12 C8.04 12 4.08 12 0 12 C0 8.04 0 4.08 0 0 Z " fill="#FFFFFF" transform="translate(794,462)"/>
<path d="M0 0 C4.62 0 9.24 0 14 0 C8.26213592 41.47572816 8.26213592 41.47572816 6 46 C1.71 46 -2.58 46 -7 46 C-6.42594659 36.92995605 -5.0796221 28.19632341 -3.42041016 19.28027344 C-2.6933964 15.33700487 -2.00526065 11.38690261 -1.3125 7.4375 C-1.05876248 5.99866815 -0.80487234 4.5598632 -0.55078125 3.12109375 C-0.36902344 2.09113281 -0.18726563 1.06117188 0 0 Z " fill="#FFFFFF" transform="translate(930,462)"/>
</svg>
