<?xml version="1.0" encoding="UTF-8"?>
<svg version="1.1" viewBox="0 0 2048 836" width="1280" height="523" xmlns="http://www.w3.org/2000/svg">
<path transform="translate(1090,185)" d="m0 0 117 1 2 6 15 73 11 52 11 54 20 96 13 62 21 102 10 48 1 10h-135l-2-5-12-57h-184l-14 25-16 29-5 8h-135l1-5 28-50 13-23 14-25 13-23 12-22 16-28 13-23 15-27 42-75 13-23 14-25 13-23 42-75 13-23 15-27zm26 184-5 8-13 24-28 52-12 22-14 26-6 12v1h112l-2-13-14-62-15-67-1-3z" fill="#020159"/>
<path transform="translate(569,185)" d="m0 0 302 1-1 11-12 69-8 44-1 2-188 1-10 57-1 4h156l-1 9-15 48-10 34-9 30-2 5-141 1-7 36-4 26h188l-2 12-8 47-8 46-4 20-1 1h-314l-1-2 5-27 10-58 10-56 8-46 16-89 9-50 9-53 6-34 12-67 3-18 2-3z" fill="#020159"/>
<path transform="translate(1434,185)" d="m0 0h25l92 1-3 20-11 62-7 39-10 57-7 41-14 78-9 50-5 30h188l-5 32-10 56-6 34-1 4h-315l1-14 5-27 15-87 7-38 9-50 6-34 7-40 20-113 7-40 6-35 5-25z" fill="#020159"/>
<path transform="translate(123,186)" d="m0 0h228l24 3 15 4 16 6 15 9 11 9 14 14 11 15 8 15 6 17 3 14 1 7v31l-3 20-7 24-9 21-10 17-10 13-10 11-5 6-8 7-12 11-18 13-18 10-10 5 18 36 13 29 11 28 12 35 10 37 7 33v2l-8 1-138-1-12-52-9-29-11-32-13-32 2-4 7-8 20-20 7-8 19-19 7-8 21-21 7-8 20-20 7-8 21-21 2-3h2l2-4 25-25 7-8 4-4-129-1 4-6 13-15 9-11 24-28 9-11 24-28 9-11 12-14 2-5h-158l-2 4-14 19-10 13-13 17-12 16-16 21-12 16-16 21-15 20-16 21-12 16-10 13-5 7-1-4 10-56 14-80 15-85 3-15z" fill="#020159"/>
<path transform="translate(1804,39)" d="m0 0h16l14 4 8 6 7 8 4 10v53l-2 24-2 19h32l44 1 28 3 19 4 14 5 10 6 5 5 5 7 2 5 1 11-4 12-6 8-5 4-8 4-19 4-29 3-37 2-22 2-45 4-3 10-3 16-8 65-4 23-7 26-8 18-7 10-9 10-11 7-15 6-16 5-24 4h-26l-15-4-9-6-4-6-1-3v-15l5-15 13-30 11-25 8-22 8-28 6-24 1-5-18 4-17 5-19 7-17 6-8 3-18 5-17 1-7-2-6-4-4-7-1-4v-21l2-14 4-12 7-12 16-16 17-10 22-10 19-6 22-5 8-2 16-3 28-4 2-11 6-49 4-50 3-6 5-4 10-4z" fill="#FE6D02"/>
<path transform="translate(243,240)" d="m0 0h115l-2 4-12 14-11 13-9 11-24 28-9 11-11 13-12 14-14 17-1 4h124l-6 8h-2l-2 4-12 12-7 8-28 28-7 8-26 26-9 10-10 10-7 8-27 27-2 3h-2l-2 4-16 16-7 8-3 1-2 4-15 15-7 8-28 28-4 5h-2l-2 4h-2l-2 4-12 12-2 3h-2l-1 3h-2l-2 4-1-2 35-70 10-19 26-52 10-19 20-40h-115l-7-1 7-11 12-15 15-20 10-13 9-12 13-17 8-11 16-21 9-12 13-17 9-12 10-13 12-16z" fill="#FE6D02"/>
<path transform="translate(76,454)" d="m0 0h39l75 1-9 19-26 52-10 19-23 46-10 19-31 62-9 16h-38l3-21 7-39 14-80 6-33 9-52z" fill="#020159"/>
<path transform="translate(1140,738)" d="m0 0h18l15 1 8 4 5 4 3 8-1 8-3 5-5 4 1 4 5 5 2 5v9l-4 7-8 6-18 3h-36l-2-1 1-15 9-54 1-2zm8 16-2 8v5h18l5-4v-6l-4-3zm0 26-5 2-1 4v7l3 1h15l6-2 2-3-1-6-6-3z" fill="#FE7008"/>
<path transform="translate(1426,738)" d="m0 0h12l16 1 10 4 6 5 4 8 1 3v9l-3 7-6 7-8 4h-2l12 21-1 4h-19l-10-17-2-4-10-1-2 16-2 6h-16l-3-1 2-17 7-41 2-12 1-1zm7 18-3 8v7l2 2h13l8-4 1-2v-6l-3-4-5-1z" fill="#FE7109"/>
<path transform="translate(1373,738)" d="m0 0 29 1-1 11-2 5-38 1-1 11h34l-1 9-2 6h-34l-1 11h37l-1 13-2 5h-54l-3-1 4-28 7-42 1-1z" fill="#FE720A"/>
<path transform="translate(283,68)" d="m0 0h29l15 4 9 7 6 11 1 5v13l-3 10-7 10-10 6-9 3-17 1h-24l-1-4 6-38 4-25zm17 17-2 4-4 25v8h10l13-5 4-4 3-6v-11l-3-5-5-5-6-1z" fill="#FE6F06"/>
<path transform="translate(145,68)" d="m0 0h34l11 4 8 7 3 6 1 9-2 8-4 6-11 7 2 6 9 15-1 2h-19l-6-9-6-11h-8l-4 19-4 1-15-1 1-11 7-43 3-14zm15 17-2 13v4h17l6-4 2-5-3-7-3-1z" fill="#FE6F05"/>
<path transform="translate(1551,738)" d="m0 0 16 1 2 6 9 35 7 27v3l-2 1h-17l-3-4-1-9-29 1-6 10-2 2h-16l-3-1 2-6 8-14 15-25 10-17 5-9zm2 27-4 4-5 10v2h14l-3-15z" fill="#FE7109"/>
<path transform="translate(1229,739)" d="m0 0h20l3 9 7 27 8 30v5l-2 1h-16l-3-4-2-8-29-1-2 5-4 7-2 1h-14l-5-1 2-6 8-13 11-19 17-28zm4 27-7 12 1 4h10l3-1-2-13-1-2z" fill="#FE7008"/>
<path transform="translate(218,68)" d="m0 0h53l1 4-2 12-1 1h-36l-1 11h32l-1 12-2 3h-32l-2 11h37l-1 10-2 6h-52l-3-1v-7l5-28 5-31z" fill="#FE730C"/>
<path transform="translate(359,68)" d="m0 0h54l1 1-1 10-2 6-36 1-1 10h32v7l-2 7-1 1h-32l-1 11h36l-1 14-1 1-10 1h-45l-1-4 8-50z" fill="#FE710A"/>
<path transform="translate(1619,737)" d="m0 0h12l12 3 6 3 5 4-2 4-7 9h-3l-10-5h-13l-2 6 5 2 13 5 10 7 5 7 1 9-3 9-8 8-13 4h-9l-10-2-8-3-10-6-2-4 5-5 5-6 5 2 10 5h15l1-4-4-4-13-5-11-7-4-6-1-5v-7l3-7 7-7 8-3z" fill="#FE6F06"/>
<path transform="translate(174,604)" d="m0 0 1 2-12 70-3 12-66 1 2-4 9-10 18-18 7-8 22-22 7-8z" fill="#030159"/>
<path transform="translate(1302,738)" d="m0 0h16l18 1-1 10-2 7-21 1-8 49-2 5h-17l-2-1 3-21 5-33h-19l-1-1v-8l1-7 1-1z" fill="#FE730C"/>
<path transform="translate(1489,739)" d="m0 0h20l-6 40-5 28-2 4h-17l-1-1 1-12 5-30z" fill="#FE6F06"/>
</svg>
